<?xml version="1.0" encoding="UTF-8"?>
<svg version="1.1" xmlns="http://www.w3.org/2000/svg" width="500" height="500">
<path d="M0 0 C0.86423584 0.17128418 1.72847168 0.34256836 2.61889648 0.51904297 C12.11727245 2.55845917 21.38482469 6.02738313 29.5 11.4375 C29.5 12.0975 29.5 12.7575 29.5 13.4375 C30.20125 13.64375 30.9025 13.85 31.625 14.0625 C35.30173359 15.8209378 37.97295079 18.24178141 40.5 21.4375 C40.5 22.0975 40.5 22.7575 40.5 23.4375 C41.098125 23.685 41.69625 23.9325 42.3125 24.1875 C44.83586869 25.62942497 46.00030076 26.96299626 47.5 29.4375 C47.5 30.4275 47.5 31.4175 47.5 32.4375 C48.16 32.4375 48.82 32.4375 49.5 32.4375 C59.59909245 50.02813234 62.1446583 72.84872733 57.07519531 92.56884766 C54.02715671 102.4710919 48.65817608 112.89239548 41.5 120.4375 C40.84 120.4375 40.18 120.4375 39.5 120.4375 C39.17 121.4275 38.84 122.4175 38.5 123.4375 C37.84 123.4375 37.18 123.4375 36.5 123.4375 C36.27626709 123.98589539 36.05253418 124.53429077 35.82202148 125.0993042 C34.10331781 128.13909271 31.80616928 130.41024322 29.34765625 132.84863281 C28.56199783 133.63954819 28.56199783 133.63954819 27.76046753 134.44644165 C26.0327998 136.18289193 24.2979431 137.91194812 22.5625 139.640625 C21.35916341 140.84530883 20.15612385 142.05028942 18.95336914 143.2555542 C16.43471796 145.77715159 13.91249015 148.29510139 11.38769531 150.81054688 C8.14580665 154.04101684 4.91301113 157.28041452 1.68281555 160.52257156 C-0.79791254 163.0105109 -3.28336486 165.49368646 -5.77029419 167.97542572 C-6.96472157 169.16851583 -8.15765651 170.36310193 -9.34909058 171.55918121 C-11.01049974 173.22564615 -12.67814391 174.88560393 -14.34765625 176.54394531 C-14.84226349 177.04260101 -15.33687073 177.54125671 -15.84646606 178.05502319 C-19.27146778 181.4375 -19.27146778 181.4375 -21.5 181.4375 C-21.7475 182.035625 -21.995 182.63375 -22.25 183.25 C-23.66370012 185.72397521 -25.15055383 186.87120255 -27.5 188.4375 C-30.65835107 187.03999952 -32.82272825 185.38551766 -35.25 182.9375 C-35.86359375 182.3290625 -36.4771875 181.720625 -37.109375 181.09375 C-38.5 179.4375 -38.5 179.4375 -38.5 177.4375 C-39.16 177.4375 -39.82 177.4375 -40.5 177.4375 C-41.31837442 176.02421871 -42.12946219 174.60671654 -42.9375 173.1875 C-43.38996094 172.39859375 -43.84242188 171.6096875 -44.30859375 170.796875 C-46.53214965 166.39350529 -47.08346849 162.35530583 -46.5 157.4375 C-44.81542882 154.77328589 -42.901238 152.48415104 -40.5 150.4375 C-39.84 150.4375 -39.18 150.4375 -38.5 150.4375 C-38.17 149.4475 -37.84 148.4575 -37.5 147.4375 C-35.93359375 145.89453125 -35.93359375 145.89453125 -33.9375 144.25 C-30.10614476 141.01923558 -26.61928602 137.56870266 -23.1640625 133.94140625 C-21.5 132.4375 -21.5 132.4375 -19.5 132.4375 C-19.17 131.4475 -18.84 130.4575 -18.5 129.4375 C-17.84 129.4375 -17.18 129.4375 -16.5 129.4375 C-16.2421875 128.85484375 -15.984375 128.2721875 -15.71875 127.671875 C-14.40165983 125.2572097 -12.94911616 123.62009823 -11 121.6875 C-10.3915625 121.07390625 -9.783125 120.4603125 -9.15625 119.828125 C-7.5 118.4375 -7.5 118.4375 -5.5 118.4375 C-4.51 116.4575 -4.51 116.4575 -3.5 114.4375 C-2.84 114.4375 -2.18 114.4375 -1.5 114.4375 C-1.17 113.4475 -0.84 112.4575 -0.5 111.4375 C1.4375 109.25 1.4375 109.25 3.5 107.4375 C4.16 107.4375 4.82 107.4375 5.5 107.4375 C6.49 105.4575 6.49 105.4575 7.5 103.4375 C8.16 103.4375 8.82 103.4375 9.5 103.4375 C9.83 102.4475 10.16 101.4575 10.5 100.4375 C11.16 100.4375 11.82 100.4375 12.5 100.4375 C13.49 98.4575 13.49 98.4575 14.5 96.4375 C15.16 96.4375 15.82 96.4375 16.5 96.4375 C16.7475 95.756875 16.995 95.07625 17.25 94.375 C18.48089789 91.48238995 19.9360807 88.93977088 21.59765625 86.28125 C25.25159493 78.81519347 24.68855468 66.07876655 22.25 58.3125 C20.14257482 53.14685781 17.2268472 49.07077432 13.25 45.1875 C12.3425 44.28 11.435 43.3725 10.5 42.4375 C10.5 41.7775 10.5 41.1175 10.5 40.4375 C9.819375 40.169375 9.13875 39.90125 8.4375 39.625 C6.37045615 38.78938653 4.329844 37.88683835 2.3125 36.9375 C-8.86358162 32.19613204 -18.90373587 33.03277086 -30.0234375 37.40234375 C-35.65922227 39.75799511 -39.27054272 41.99656986 -43.5 46.4375 C-44.44875 47.200625 -45.3975 47.96375 -46.375 48.75 C-48.65067003 50.61226791 -50.52466911 52.5657474 -52.41015625 54.8203125 C-57.63615235 60.86115142 -63.38358352 66.39028836 -69.0625 72 C-71.27515633 74.18577807 -73.48532005 76.37399629 -75.69140625 78.56640625 C-76.21256012 79.08361237 -76.73371399 79.60081848 -77.2706604 80.13369751 C-80.03188197 82.8953652 -82.6601284 85.70861371 -85.15234375 88.71484375 C-85.92707031 89.61332031 -86.70179687 90.51179688 -87.5 91.4375 C-88.16 91.4375 -88.82 91.4375 -89.5 91.4375 C-89.5 92.0975 -89.5 92.7575 -89.5 93.4375 C-91.109375 95.09375 -91.109375 95.09375 -93.25 96.9375 C-93.94609375 97.5459375 -94.6421875 98.154375 -95.359375 98.78125 C-97.5 100.4375 -97.5 100.4375 -99.703125 101.46875 C-101.85632919 102.3648424 -101.85632919 102.3648424 -102.5 105.4375 C-103.221875 106.118125 -103.94375 106.79875 -104.6875 107.5 C-113.17519603 115.71785598 -117.77882517 128.36034193 -118.8125 139.9375 C-118.67404565 149.07548728 -114.95405685 158.20770371 -109.5 165.4375 C-108.89800781 166.25863281 -108.29601562 167.07976562 -107.67578125 167.92578125 C-105.36867709 170.58909898 -103.16285263 172.25225329 -100.1875 174.125 C-98.83205078 174.99705078 -98.83205078 174.99705078 -97.44921875 175.88671875 C-94.13505546 177.62939799 -91.12138141 178.52428208 -87.5 179.4375 C-87.8609375 178.42816406 -88.221875 177.41882813 -88.59375 176.37890625 C-94.64995862 158.09820821 -95.2764142 138.26534319 -87.5 120.4375 C-87.0771875 119.45007813 -86.654375 118.46265625 -86.21875 117.4453125 C-78.20839887 101.00546396 -62.99963946 89.94915056 -46.24243164 83.5793457 C-39.68724333 81.3807801 -33.57117931 80.93186108 -26.6875 81 C-25.63377197 81.00612305 -24.58004395 81.01224609 -23.49438477 81.01855469 C-12.6717426 81.23552492 -3.65894006 83.47353903 5.5 89.4375 C5.31477977 95.13574576 1.41104581 98.04639447 -2.4375 101.75 C-3.08396484 102.39517578 -3.73042969 103.04035156 -4.39648438 103.70507812 C-9.21904762 108.4375 -9.21904762 108.4375 -11.5 108.4375 C-11.78875 109.05625 -12.0775 109.675 -12.375 110.3125 C-13.5 112.4375 -13.5 112.4375 -15.5 114.4375 C-17.41114913 114.61630383 -19.33101987 114.70553583 -21.25 114.75 C-32.47683677 115.50672601 -42.37398637 118.80211484 -50.43359375 126.875 C-57.16562464 135.22322735 -58.92663065 144.89844713 -57.84716797 155.37646484 C-54.50189157 175.23639688 -37.76210252 192.26763508 -23.5 205.4375 C-22.84 205.7675 -22.18 206.0975 -21.5 206.4375 C-21.5 207.0975 -21.5 207.7575 -21.5 208.4375 C-20.7265625 208.7778125 -20.7265625 208.7778125 -19.9375 209.125 C-17.5 210.4375 -17.5 210.4375 -14.4375 212.8125 C-9.90627159 216.13474556 -4.79869721 217.71626715 0.5 219.4375 C1.49 219.7675 2.48 220.0975 3.5 220.4375 C12.50487509 221.36107693 19.30854784 218.83108912 26.5 213.4375 C31.24120511 209.53297815 33.59024418 204.16676747 35.5 198.4375 C35.82861165 191.37234949 35.59565123 184.42227657 34.5 177.4375 C33.84 177.4375 33.18 177.4375 32.5 177.4375 C32.066875 176.365 31.63375 175.2925 31.1875 174.1875 C29.94552705 171.25999233 28.45643046 168.95291059 26.5 166.4375 C26.5 165.7775 26.5 165.1175 26.5 164.4375 C25.51 164.1075 24.52 163.7775 23.5 163.4375 C21.859375 161.94921875 21.859375 161.94921875 20.25 160.125 C19.70859375 159.53074219 19.1671875 158.93648437 18.609375 158.32421875 C17.5 156.4375 17.5 156.4375 17.58984375 154.43359375 C18.74863305 151.89221463 20.18048578 150.60829676 22.3125 148.8125 C22.99957031 148.22210938 23.68664062 147.63171875 24.39453125 147.0234375 C26.5 145.4375 26.5 145.4375 28.7109375 144.3671875 C30.73965313 143.56971289 30.73965313 143.56971289 31.3125 141.1875 C33.04722501 137.17024208 35.85740253 134.79771435 39.5 132.4375 C42.25 131.875 42.25 131.875 44.5 132.4375 C46.3125 133.8125 46.3125 133.8125 47.5 135.4375 C47.5 136.0975 47.5 136.7575 47.5 137.4375 C48.49 137.7675 49.48 138.0975 50.5 138.4375 C50.5 139.4275 50.5 140.4175 50.5 141.4375 C51.09167969 141.69273437 51.68335938 141.94796875 52.29296875 142.2109375 C61.03652651 147.07018907 65.46398449 159.38947014 68.5 168.4375 C73.80967037 187.27180244 72.46376453 206.35500062 63.28515625 223.73828125 C62.3917049 225.32487279 61.45233887 226.88554037 60.5 228.4375 C59.84 228.4375 59.18 228.4375 58.5 228.4375 C58.33757812 229.31535156 58.33757812 229.31535156 58.171875 230.2109375 C57.01657929 234.03953373 54.36162831 236.71963771 51.5 239.4375 C48.625 240.875 48.625 240.875 46.5 241.4375 C46.5 242.0975 46.5 242.7575 46.5 243.4375 C35.183812 250.21433521 25.91781322 254.83588609 12.5 255.4375 C11.076875 255.51677734 11.076875 255.51677734 9.625 255.59765625 C-3.22237259 255.99059451 -14.76111573 252.37095136 -26.5 247.4375 C-26.5 246.7775 -26.5 246.1175 -26.5 245.4375 C-27.07234375 245.32277344 -27.6446875 245.20804688 -28.234375 245.08984375 C-30.71471656 244.37567644 -32.56368697 243.36442128 -34.75 242 C-35.45640625 241.56816406 -36.1628125 241.13632812 -36.890625 240.69140625 C-37.68726563 240.07072266 -37.68726563 240.07072266 -38.5 239.4375 C-38.5 238.7775 -38.5 238.1175 -38.5 237.4375 C-39.2425 237.18613281 -39.985 236.93476563 -40.75 236.67578125 C-43.70634486 235.34458619 -45.2818855 233.96385863 -47.5 231.625 C-48.18964844 230.90828125 -48.87929687 230.1915625 -49.58984375 229.453125 C-50.53537109 228.45539063 -50.53537109 228.45539063 -51.5 227.4375 C-52.345625 226.591875 -53.19125 225.74625 -54.0625 224.875 C-55.4714029 223.4660971 -56.87295581 222.04959273 -58.25390625 220.61328125 C-58.87136719 219.97777344 -59.48882812 219.34226562 -60.125 218.6875 C-60.69476563 218.09453125 -61.26453125 217.5015625 -61.8515625 216.890625 C-63.54791115 215.2047981 -63.54791115 215.2047981 -66.5 214.4375 C-68.23358838 214.57837202 -69.96293975 214.77402314 -71.6875 215 C-90.59556871 216.73552321 -110.52427525 210.86285969 -125.3125 199 C-127.0550979 197.49457516 -128.78562843 195.97499196 -130.5 194.4375 C-131.14710938 193.88449219 -131.79421875 193.33148438 -132.4609375 192.76171875 C-143.85158725 182.37612633 -151.64130785 165.80982272 -152.70507812 150.48266602 C-152.80309104 147.34000199 -152.82210912 144.20660324 -152.8125 141.0625 C-152.82861328 140.01578125 -152.84472656 138.9690625 -152.86132812 137.890625 C-152.87346369 118.23100728 -143.89063176 99.44677043 -131.5 84.4375 C-130.84 84.4375 -130.18 84.4375 -129.5 84.4375 C-128.84 83.1175 -128.18 81.7975 -127.5 80.4375 C-126.84 80.4375 -126.18 80.4375 -125.5 80.4375 C-125.273125 79.880625 -125.04625 79.32375 -124.8125 78.75 C-122.54399551 74.75311114 -119.88100054 71.89783351 -115.5 70.4375 C-114.81513275 69.11342331 -114.15129797 67.77840759 -113.5 66.4375 C-111.5 64.1875 -111.5 64.1875 -109.5 62.4375 C-108.84 62.4375 -108.18 62.4375 -107.5 62.4375 C-107.2525 61.85097656 -107.005 61.26445312 -106.75 60.66015625 C-105.31617504 58.11063625 -103.75307196 56.72632935 -101.5 54.875 C-98.94227537 52.76393684 -97.366865 51.23779749 -95.5 48.4375 C-94.84 48.4375 -94.18 48.4375 -93.5 48.4375 C-92.84 47.1175 -92.18 45.7975 -91.5 44.4375 C-90.84 44.4375 -90.18 44.4375 -89.5 44.4375 C-89.17 43.4475 -88.84 42.4575 -88.5 41.4375 C-86.87660195 39.72865995 -85.20680947 38.06303283 -83.5 36.4375 C-82.943125 35.839375 -82.38625 35.24125 -81.8125 34.625 C-80.5 33.4375 -80.5 33.4375 -78.5 33.4375 C-78.17 32.4475 -77.84 31.4575 -77.5 30.4375 C-76.84 30.4375 -76.18 30.4375 -75.5 30.4375 C-74.84 29.1175 -74.18 27.7975 -73.5 26.4375 C-72.84 26.4375 -72.18 26.4375 -71.5 26.4375 C-70.84 25.1175 -70.18 23.7975 -69.5 22.4375 C-68.84 22.4375 -68.18 22.4375 -67.5 22.4375 C-67.15775391 21.58478516 -67.15775391 21.58478516 -66.80859375 20.71484375 C-60.1879005 9.19286116 -44.97219808 4.5251319 -32.99609375 1.28515625 C-21.61814792 -1.47351889 -11.4822133 -2.28004431 0 0 Z " fill="#FEFEFE" transform="translate(192.5,114.5625)"/>
<path d="M0 0 C0.70382812 0.62132812 1.40765625 1.24265625 2.1328125 1.8828125 C2.1328125 2.5428125 2.1328125 3.2028125 2.1328125 3.8828125 C3.1228125 4.2128125 4.1128125 4.5428125 5.1328125 4.8828125 C6.84389939 6.50384218 8.50534556 8.17784713 10.1328125 9.8828125 C10.8959375 10.6253125 11.6590625 11.3678125 12.4453125 12.1328125 C14.82960493 14.5725536 17.15125443 17.04604086 19.4453125 19.5703125 C20.49138672 20.72080078 20.49138672 20.72080078 21.55859375 21.89453125 C23.1328125 23.8828125 23.1328125 23.8828125 23.1328125 25.8828125 C23.71546875 26.140625 24.298125 26.3984375 24.8984375 26.6640625 C27.3131028 27.98115267 28.95021427 29.43369634 30.8828125 31.3828125 C31.49640625 31.99125 32.11 32.5996875 32.7421875 33.2265625 C34.1328125 34.8828125 34.1328125 34.8828125 34.1328125 36.8828125 C35.1228125 37.2128125 36.1128125 37.5428125 37.1328125 37.8828125 C37.35546875 40.171875 37.35546875 40.171875 37.1328125 42.8828125 C35.62890625 44.65625 35.62890625 44.65625 33.5703125 46.2578125 C30.70345137 48.58270519 28.01905314 50.92287444 25.4453125 53.5703125 C22.8283377 56.24118381 20.06262549 58.5561963 17.1328125 60.8828125 C16.8028125 61.5428125 16.4728125 62.2028125 16.1328125 62.8828125 C14.4828125 62.8828125 12.8328125 62.8828125 11.1328125 62.8828125 C10.8028125 61.8928125 10.4728125 60.9028125 10.1328125 59.8828125 C9.1428125 59.5528125 8.1528125 59.2228125 7.1328125 58.8828125 C5.72387695 57.45922852 5.72387695 57.45922852 4.18359375 55.57421875 C-0.32399403 50.26706935 -5.18901645 45.33902489 -10.09985352 40.40991211 C-11.67349197 38.82654632 -13.23609995 37.23279688 -14.79882812 35.63867188 C-29.21583142 21.07028436 -44.52166258 11.68328729 -65.4296875 11.5078125 C-78.93835613 11.64766198 -88.35725484 15.20835551 -99.05859375 23.6015625 C-100.8671875 24.8828125 -100.8671875 24.8828125 -102.8671875 24.8828125 C-102.8671875 25.5428125 -102.8671875 26.2028125 -102.8671875 26.8828125 C-104.02389087 28.07353656 -105.18614779 29.25934159 -106.375 30.41796875 C-116.35105925 40.21122064 -122.14501106 53.51702905 -122.33569336 67.56884766 C-122.32546143 68.43558105 -122.31522949 69.30231445 -122.3046875 70.1953125 C-122.29638916 71.11103027 -122.28809082 72.02674805 -122.27954102 72.97021484 C-121.81625771 91.663119 -112.35046765 104.00197565 -99.8671875 116.8828125 C-99.26390625 117.45 -98.660625 118.0171875 -98.0390625 118.6015625 C-96.8671875 119.8828125 -96.8671875 119.8828125 -96.8671875 121.8828125 C-96.2071875 121.8828125 -95.5471875 121.8828125 -94.8671875 121.8828125 C-92.7421875 123.7578125 -92.7421875 123.7578125 -90.8671875 125.8828125 C-90.8671875 126.5428125 -90.8671875 127.2028125 -90.8671875 127.8828125 C-90.28324219 128.13160156 -89.69929688 128.38039063 -89.09765625 128.63671875 C-86.55402466 130.05776687 -85.07311052 131.61474165 -83.1796875 133.8203125 C-82.57769531 134.50996094 -81.97570312 135.19960938 -81.35546875 135.91015625 C-79.8671875 137.8828125 -79.8671875 137.8828125 -78.8671875 140.8828125 C-78.00770508 141.30977417 -78.00770508 141.30977417 -77.13085938 141.74536133 C-74.00126624 143.31792112 -72.0648756 145.55304613 -69.6484375 148.08203125 C-68.62286064 149.13782149 -67.59680245 150.19314436 -66.5703125 151.24804688 C-64.97665629 152.89691675 -63.38720774 154.54926807 -61.80664062 156.21069336 C-50.66510635 167.88787832 -39.94269127 175.86372191 -23.3046875 176.3203125 C-11.46818554 176.33138759 -1.133616 172.66674952 8.1796875 165.23828125 C10.1328125 163.8828125 10.1328125 163.8828125 13.1328125 163.8828125 C13.7928125 162.5628125 14.4528125 161.2428125 15.1328125 159.8828125 C17.0703125 160.1953125 17.0703125 160.1953125 19.1328125 160.8828125 C19.4628125 161.8728125 19.7928125 162.8628125 20.1328125 163.8828125 C21.1228125 164.2128125 22.1128125 164.5428125 23.1328125 164.8828125 C23.1328125 165.5428125 23.1328125 166.2028125 23.1328125 166.8828125 C23.7103125 167.13289062 24.2878125 167.38296875 24.8828125 167.640625 C27.43497255 169.04963002 29.11004312 170.66393013 31.1328125 172.7578125 C32.1228125 173.77488281 32.1228125 173.77488281 33.1328125 174.8125 C34.1228125 175.83730469 34.1228125 175.83730469 35.1328125 176.8828125 C35.8959375 177.52476562 36.6590625 178.16671875 37.4453125 178.828125 C39.1328125 180.8828125 39.1328125 180.8828125 39.09375 183.421875 C34.85315237 194.28194209 17.84463968 200.93130091 7.7421875 205.375 C-10.93144284 213.17588886 -33.94870445 212.86004424 -52.8671875 205.8828125 C-62.75546392 201.703971 -70.80719425 195.91623174 -78.8671875 188.8828125 C-79.62644531 188.34269531 -80.38570313 187.80257812 -81.16796875 187.24609375 C-81.72871094 186.79621094 -82.28945313 186.34632813 -82.8671875 185.8828125 C-82.8671875 185.2228125 -82.8671875 184.5628125 -82.8671875 183.8828125 C-83.8571875 183.5528125 -84.8471875 183.2228125 -85.8671875 182.8828125 C-85.8671875 182.2228125 -85.8671875 181.5628125 -85.8671875 180.8828125 C-86.5271875 180.8828125 -87.1871875 180.8828125 -87.8671875 180.8828125 C-89.86597389 178.55778742 -91.66574507 176.10958737 -93.50390625 173.65625 C-95.79835789 170.96358774 -98.16147408 168.86206212 -100.86694336 166.60986328 C-104.87035675 163.15323612 -108.56496383 159.3695227 -112.3046875 155.6328125 C-113.13162109 154.818125 -113.95855469 154.0034375 -114.81054688 153.1640625 C-115.59107422 152.38546875 -116.37160156 151.606875 -117.17578125 150.8046875 C-117.88532959 150.09924805 -118.59487793 149.39380859 -119.32592773 148.66699219 C-120.8671875 146.8828125 -120.8671875 146.8828125 -120.8671875 144.8828125 C-121.8571875 144.5528125 -122.8471875 144.2228125 -123.8671875 143.8828125 C-123.8671875 143.2228125 -123.8671875 142.5628125 -123.8671875 141.8828125 C-125.1871875 141.2228125 -126.5071875 140.5628125 -127.8671875 139.8828125 C-127.8671875 139.2228125 -127.8671875 138.5628125 -127.8671875 137.8828125 C-128.764375 137.5115625 -128.764375 137.5115625 -129.6796875 137.1328125 C-132.18345669 135.70208725 -133.34791138 134.3136543 -134.8671875 131.8828125 C-134.8671875 131.2228125 -134.8671875 130.5628125 -134.8671875 129.8828125 C-135.45886719 129.64820313 -136.05054688 129.41359375 -136.66015625 129.171875 C-146.51650577 123.41506909 -151.86272422 104.44047789 -155.359375 93.97265625 C-159.3301886 77.63123103 -159.1221287 54.58148844 -152.8671875 38.8828125 C-152.30644531 37.3359375 -152.30644531 37.3359375 -151.734375 35.7578125 C-148.92204353 28.45692551 -145.37772265 21.29072642 -140.8671875 14.8828125 C-140.2071875 14.8828125 -139.5471875 14.8828125 -138.8671875 14.8828125 C-138.526875 13.8 -138.526875 13.8 -138.1796875 12.6953125 C-136.57455227 9.255737 -134.64616147 7.48054904 -131.8671875 4.8828125 C-131.2071875 4.191875 -130.5471875 3.5009375 -129.8671875 2.7890625 C-129.1659375 2.056875 -128.4646875 1.3246875 -127.7421875 0.5703125 C-126.74832031 -0.47576172 -126.74832031 -0.47576172 -125.734375 -1.54296875 C-123.8671875 -3.1171875 -123.8671875 -3.1171875 -120.8671875 -3.1171875 C-120.3721875 -4.6021875 -120.3721875 -4.6021875 -119.8671875 -6.1171875 C-82.77650643 -33.60454494 -35.05093079 -26.2653189 0 0 Z " fill="#FEFEFE" transform="translate(423.8671875,152.1171875)"/>
<path d="M0 0 C0.74830078 0.67675781 0.74830078 0.67675781 1.51171875 1.3671875 C1.51171875 2.0271875 1.51171875 2.6871875 1.51171875 3.3671875 C2.83171875 4.0271875 4.15171875 4.6871875 5.51171875 5.3671875 C5.51171875 6.0271875 5.51171875 6.6871875 5.51171875 7.3671875 C6.10049805 7.63144531 6.68927734 7.89570313 7.29589844 8.16796875 C9.59244459 9.41087694 11.12005041 10.71725231 12.96484375 12.5546875 C13.58359375 13.17085937 14.20234375 13.78703125 14.83984375 14.421875 C15.4740625 15.06382812 16.10828125 15.70578125 16.76171875 16.3671875 C17.73625 17.33011719 17.73625 17.33011719 18.73046875 18.3125 C19.3440625 18.92867187 19.95765625 19.54484375 20.58984375 20.1796875 C21.43144043 21.02466797 21.43144043 21.02466797 22.29003906 21.88671875 C23.51171875 23.3671875 23.51171875 23.3671875 23.51171875 25.3671875 C24.37023437 25.74423828 24.37023437 25.74423828 25.24609375 26.12890625 C27.81650323 27.53376798 29.65889462 29.14306339 31.76171875 31.1796875 C32.468125 31.84613281 33.17453125 32.51257813 33.90234375 33.19921875 C35.51171875 35.3671875 35.51171875 35.3671875 35.9765625 37.91015625 C35.3772172 41.07812424 34.33672097 41.89805453 31.82421875 43.8671875 C31.09203125 44.46273437 30.35984375 45.05828125 29.60546875 45.671875 C28.91453125 46.23132813 28.22359375 46.79078125 27.51171875 47.3671875 C25.82556093 49.01413235 24.15601704 50.67844871 22.51171875 52.3671875 C19.51171875 55.3671875 16.51171875 58.3671875 13.51171875 61.3671875 C9.28734265 60.00772405 7.1903651 58.26892631 4.34375 54.8984375 C-0.49221285 49.3281136 -5.58791478 44.08395873 -10.80078125 38.8671875 C-12.12045898 37.52914062 -12.12045898 37.52914062 -13.46679688 36.1640625 C-14.31564453 35.31328125 -15.16449219 34.4625 -16.0390625 33.5859375 C-16.79872314 32.82216797 -17.55838379 32.05839844 -18.34106445 31.27148438 C-21.70551463 28.28766273 -23.51132223 27.35004787 -28.05078125 27.4296875 C-31.56416492 28.05889443 -31.56416492 28.05889443 -33.48828125 30.5546875 C-35.02047627 34.86398599 -33.93529947 37.85420275 -32.67578125 42.1171875 C-31.29207672 44.73894346 -30.22747781 45.36281543 -27.48828125 46.3671875 C-27.48828125 47.0271875 -27.48828125 47.6871875 -27.48828125 48.3671875 C-26.49828125 48.6971875 -25.50828125 49.0271875 -24.48828125 49.3671875 C-24.48828125 50.0271875 -24.48828125 50.6871875 -24.48828125 51.3671875 C-23.8953125 51.62242187 -23.30234375 51.87765625 -22.69140625 52.140625 C-20.26153635 53.49342491 -18.99591859 54.85060026 -17.23828125 56.9921875 C-12.40017882 62.69866729 -7.24588719 67.95965999 -1.48828125 72.7421875 C-0.49828125 73.6084375 0.49171875 74.4746875 1.51171875 75.3671875 C1.51171875 76.0271875 1.51171875 76.6871875 1.51171875 77.3671875 C2.99671875 77.8621875 2.99671875 77.8621875 4.51171875 78.3671875 C4.51171875 79.0271875 4.51171875 79.6871875 4.51171875 80.3671875 C5.3934375 80.74230469 5.3934375 80.74230469 6.29296875 81.125 C8.80512977 82.53145635 10.17817227 84.03359742 12.01171875 86.2421875 C13.92618488 88.52719546 15.7250815 90.5586669 17.94921875 92.5546875 C19.51171875 94.3671875 19.51171875 94.3671875 20.07421875 96.8046875 C19.25189183 100.55084346 17.39002148 101.84867261 14.51171875 104.3671875 C13.95355469 104.96144531 13.39539063 105.55570312 12.8203125 106.16796875 C7.4061345 111.62735909 2.14417672 113.14143874 -5.48828125 113.3671875 C-10.06507379 112.54990312 -12.55625761 110.97583198 -15.48828125 107.3671875 C-15.48828125 106.7071875 -15.48828125 106.0471875 -15.48828125 105.3671875 C-16.0709375 105.109375 -16.65359375 104.8515625 -17.25390625 104.5859375 C-19.66857155 103.26884733 -21.30568302 101.81630366 -23.23828125 99.8671875 C-23.851875 99.25875 -24.46546875 98.6503125 -25.09765625 98.0234375 C-26.48828125 96.3671875 -26.48828125 96.3671875 -26.48828125 94.3671875 C-27.08640625 94.0990625 -27.68453125 93.8309375 -28.30078125 93.5546875 C-30.48675979 92.36801344 -31.90160719 91.27119637 -33.48828125 89.3671875 C-33.48828125 88.7071875 -33.48828125 88.0471875 -33.48828125 87.3671875 C-34.29652344 87.04814453 -34.29652344 87.04814453 -35.12109375 86.72265625 C-38.35934915 84.8684077 -40.77940454 82.32909145 -43.36328125 79.6796875 C-44.15847168 78.87265381 -44.15847168 78.87265381 -44.96972656 78.04931641 C-55.48828125 67.30125423 -55.48828125 67.30125423 -55.48828125 64.3671875 C-56.08640625 64.12097656 -56.68453125 63.87476563 -57.30078125 63.62109375 C-59.86629581 62.15050415 -60.88533456 60.77444504 -62.48828125 58.3046875 C-62.96265625 57.59183594 -63.43703125 56.87898438 -63.92578125 56.14453125 C-68.06448562 48.78798424 -70.17710355 42.94222167 -69.98828125 34.4296875 C-69.97547119 33.54941895 -69.96266113 32.66915039 -69.94946289 31.76220703 C-69.74689288 25.27876465 -68.92585507 19.97479317 -65.48828125 14.3671875 C-64.97910156 13.52027344 -64.46992188 12.67335937 -63.9453125 11.80078125 C-57.44053062 1.81288962 -48.75207681 -5.75410895 -36.8671875 -8.3125 C-23.32009908 -10.1365743 -11.27532087 -7.81377712 0 0 Z " fill="#FEFEFE" transform="translate(387.48828125,188.6328125)"/>
<path d="M0 0 C0.98444092 0.21897949 0.98444092 0.21897949 1.98876953 0.44238281 C3.91015625 0.9140625 3.91015625 0.9140625 7 2 C7.495 3.485 7.495 3.485 8 5 C6.56163249 4.88541307 5.12429034 4.75790884 3.6875 4.625 C2.88699219 4.55539063 2.08648437 4.48578125 1.26171875 4.4140625 C-1 4 -1 4 -4 2 C-11.43270098 0.77422893 -18.91280912 0.81380564 -26.42919922 0.81469727 C-28.49597592 0.81250427 -30.56222297 0.7942678 -32.62890625 0.77539062 C-39.7020542 0.74638664 -46.16490395 1.08708042 -53 3 C-53 2.01 -53 1.02 -53 0 C-51.98679687 -0.19916016 -51.98679687 -0.19916016 -50.953125 -0.40234375 C-49.61507813 -0.66724609 -49.61507813 -0.66724609 -48.25 -0.9375 C-47.36828125 -1.11152344 -46.4865625 -1.28554687 -45.578125 -1.46484375 C-44.08497502 -1.77478549 -42.59597391 -2.1123143 -41.12670898 -2.52075195 C-28.0981006 -5.45671318 -12.83155497 -3.01106457 0 0 Z " fill="#EBEBEB" transform="translate(386,132)"/>
<path d="M0 0 C0 0.66 0 1.32 0 2 C-0.99 2 -1.98 2 -3 2 C-3.268125 2.5775 -3.53625 3.155 -3.8125 3.75 C-5.76943809 7.4578827 -6.92938213 9.64312738 -11 11 C-12.84399021 12.9466718 -14.49469912 15.00800719 -16.18359375 17.08984375 C-18.02321723 19.02441554 -19.55756696 19.97471492 -22 21 C-20.1627685 16.95809069 -18.42607122 13.87347909 -15 11 C-14.34 11 -13.68 11 -13 11 C-12.67 10.01 -12.34 9.02 -12 8 C-11.34 8 -10.68 8 -10 8 C-9.731875 7.401875 -9.46375 6.80375 -9.1875 6.1875 C-7.04182475 2.23494033 -4.74308808 0 0 0 Z " fill="#EDEDED" transform="translate(186,236)"/>
<path d="M0 0 C3.85014448 1.51255676 5.47159227 3.80230787 8 7 C9.06472782 7.91786881 10.14877303 8.81375654 11.25 9.6875 C12.1575 10.450625 13.065 11.21375 14 12 C14 12.66 14 13.32 14 14 C14.598125 14.268125 15.19625 14.53625 15.8125 14.8125 C17.97224808 15.98493467 19.35790256 17.19369282 21 19 C20.67 19.99 20.34 20.98 20 22 C15.39251469 18.11323865 10.95001542 14.07428823 6.625 9.875 C5.79226563 9.06804687 4.95953125 8.26109375 4.1015625 7.4296875 C2.00188907 5.00218402 0.98177968 3.03164933 0 0 Z " fill="#EAEAEA" transform="translate(309,302)"/>
<path d="M0 0 C1.34313399 0.64669414 2.67391178 1.31903578 4 2 C4.78375 2.37125 5.5675 2.7425 6.375 3.125 C10.06815867 5.76297048 12.62072234 9.1490042 15 13 C15 13.66 15 14.32 15 15 C15.66 15.33 16.32 15.66 17 16 C16.34 16.33 15.68 16.66 15 17 C13.83593677 15.83593677 12.67245135 14.67129061 11.51171875 13.50390625 C10.46205398 12.4596661 9.40128152 11.42652024 8.33203125 10.40234375 C6.85185191 8.97138652 5.42232322 7.48847779 4 6 C4 5.34 4 4.68 4 4 C2.68 3.67 1.36 3.34 0 3 C0 2.01 0 1.02 0 0 Z " fill="#F3F3F3" transform="translate(199,151)"/>
<path d="M0 0 C0.66 0 1.32 0 2 0 C1.67 1.32 1.34 2.64 1 4 C0.34 4 -0.32 4 -1 4 C-1.0825 4.5775 -1.165 5.155 -1.25 5.75 C-2.21797787 8.6539336 -3.68694284 10.03740604 -6 12 C-6.66 12 -7.32 12 -8 12 C-8.268125 12.598125 -8.53625 13.19625 -8.8125 13.8125 C-9.99917406 15.99847854 -11.09599113 17.41332594 -13 19 C-13.66 19 -14.32 19 -15 19 C-14.1875 16.5625 -14.1875 16.5625 -13 14 C-12.01 13.67 -11.02 13.34 -10 13 C-9.67 12.01 -9.34 11.02 -9 10 C-8.34 10 -7.68 10 -7 10 C-6.34 8.68 -5.68 7.36 -5 6 C-4.34 6 -3.68 6 -3 6 C-2.690625 5.195625 -2.38125 4.39125 -2.0625 3.5625 C-1 1 -1 1 0 0 Z " fill="#F3F3F3" transform="translate(212,205)"/>
<path d="M0 0 C17.59613643 0.73528524 17.59613643 0.73528524 24 4 C24.33 4.99 24.66 5.98 25 7 C23.56163249 6.88541307 22.12429034 6.75790884 20.6875 6.625 C19.88699219 6.55539063 19.08648437 6.48578125 18.26171875 6.4140625 C16 6 16 6 13 4 C10.78415454 3.55296766 8.55158039 3.18536758 6.3125 2.875 C4.54326172 2.62363281 4.54326172 2.62363281 2.73828125 2.3671875 C1.38283203 2.18542969 1.38283203 2.18542969 0 2 C0 1.34 0 0.68 0 0 Z " fill="#F4F4F4" transform="translate(369,130)"/>
<path d="M0 0 C1.875 0.25 1.875 0.25 4 1 C5.25 3.0625 5.25 3.0625 6 5 C6.66 5 7.32 5 8 5 C10.125 6.875 10.125 6.875 12 9 C12 9.66 12 10.32 12 11 C13.32 11.66 14.64 12.32 16 13 C15.67 14.32 15.34 15.64 15 17 C8.82808349 12.11987997 4.24517944 6.60361246 0 0 Z " fill="#F0F0F0" transform="translate(321,269)"/>
<path d="M0 0 C0.66 0.33 1.32 0.66 2 1 C-4.75 17.875 -4.75 17.875 -9 20 C-8.46274105 16.62294375 -7.88935377 13.303314 -7 10 C-6.34 10 -5.68 10 -5 10 C-4.67 8.35 -4.34 6.7 -4 5 C-3.01 4.67 -2.02 4.34 -1 4 C-0.26676204 1.98491642 -0.26676204 1.98491642 0 0 Z " fill="#F1F1F1" transform="translate(83,222)"/>
<path d="M0 0 C-0.22061899 3.86083225 -0.88572806 4.89588557 -3.8125 7.5625 C-4.61880859 8.17351562 -4.61880859 8.17351562 -5.44140625 8.796875 C-7.19683305 10.09339263 -7.19683305 10.09339263 -9.25 12.3125 C-11 14 -11 14 -13 14 C-12.6875 12.0625 -12.6875 12.0625 -12 10 C-11.01 9.67 -10.02 9.34 -9 9 C-8.566875 8.13375 -8.566875 8.13375 -8.125 7.25 C-6.49551525 3.9910305 -3.89767866 0 0 0 Z " fill="#F7F7F7" transform="translate(76,186)"/>
<path d="M0 0 C2.29109597 -0.08075665 4.58299267 -0.13907731 6.875 -0.1875 C8.78925781 -0.23970703 8.78925781 -0.23970703 10.7421875 -0.29296875 C11.81726563 -0.19628906 12.89234375 -0.09960938 14 0 C14.66 0.99 15.32 1.98 16 3 C10.39 3 4.78 3 -1 3 C-0.67 2.01 -0.34 1.02 0 0 Z " fill="#E5E5E5" transform="translate(353,180)"/>
<path d="M0 0 C4.48632152 1.42268935 7.03803663 3.66247289 10.3125 7 C11.19550781 7.886875 12.07851562 8.77375 12.98828125 9.6875 C15 12 15 12 15 14 C12.05043472 12.63055898 9.47531189 11.12169591 7 9 C7 8.34 7 7.68 7 7 C6.01 6.67 5.02 6.34 4 6 C1.8125 4.0625 1.8125 4.0625 0 2 C0 1.34 0 0.68 0 0 Z " fill="#F1F1F1" transform="translate(154,308)"/>
<path d="M0 0 C0.33 0 0.66 0 1 0 C1 1.98 1 3.96 1 6 C1.66 6 2.32 6 3 6 C3.3690205 17.52164009 3.3690205 17.52164009 1 23 C0.67 23 0.34 23 0 23 C0 15.41 0 7.82 0 0 Z " fill="#F2F2F2" transform="translate(261,293)"/>
<path d="M0 0 C0.33 0.99 0.66 1.98 1 3 C-0.21424393 4.49144105 -1.44706045 5.96777403 -2.6875 7.4375 C-3.37199219 8.26121094 -4.05648437 9.08492187 -4.76171875 9.93359375 C-7.24022612 12.22177944 -8.69136813 12.68130516 -12 13 C-10.86667351 9.60002052 -9.37562253 8.51951645 -6.6328125 6.33984375 C-4.24903035 4.38377371 -2.14748378 2.21064506 0 0 Z " fill="#F3F3F3" transform="translate(112,194)"/>
<path d="M0 0 C0.66 0.33 1.32 0.66 2 1 C-0.8074693 6.77090912 -3.90853898 12.37734275 -7 18 C-7.66 17.67 -8.32 17.34 -9 17 C-8.67 15.68 -8.34 14.36 -8 13 C-7.34 13 -6.68 13 -6 13 C-6.33 11.68 -6.66 10.36 -7 9 C-6.34 9 -5.68 9 -5 9 C-4.731875 8.443125 -4.46375 7.88625 -4.1875 7.3125 C-2.89877353 4.80287477 -1.47073522 2.40665764 0 0 Z " fill="#F2F2F2" transform="translate(312,183)"/>
<path d="M0 0 C6.78982507 0.37035409 11.26884891 2.40476401 17 6 C17 6.99 17 7.98 17 9 C15.68 8.67 14.36 8.34 13 8 C13 7.34 13 6.68 13 6 C12.43796875 5.87753906 11.8759375 5.75507812 11.296875 5.62890625 C8.81013481 4.9480131 6.59485224 4.00647675 4.25 2.9375 C3.45078125 2.57527344 2.6515625 2.21304688 1.828125 1.83984375 C1.22484375 1.56269531 0.6215625 1.28554687 0 1 C0 0.67 0 0.34 0 0 Z " fill="#EEEEEE" transform="translate(205,120)"/>
<path d="M0 0 C-3.26970839 2.89243434 -5.71756976 3.43439601 -10 4 C-13.00829264 4.63021515 -16.00392444 5.31423159 -19 6 C-19 5.01 -19 4.02 -19 3 C-17.98679687 2.80083984 -17.98679687 2.80083984 -16.953125 2.59765625 C-15.61507813 2.33275391 -15.61507813 2.33275391 -14.25 2.0625 C-13.36828125 1.88847656 -12.4865625 1.71445313 -11.578125 1.53515625 C-9.99195212 1.20590521 -8.41127524 0.84641963 -6.84375 0.4375 C-4.53162795 -0.11113913 -2.36700321 -0.06575009 0 0 Z " fill="#F3F3F3" transform="translate(352,129)"/>
<path d="M0 0 C1.32 0.33 2.64 0.66 4 1 C4 1.99 4 2.98 4 4 C4.5775 4.061875 5.155 4.12375 5.75 4.1875 C8.88690987 5.32027301 10.09167504 7.34197595 12 10 C7.31266455 9.71591906 4.79071085 7.48550729 1.35546875 4.5703125 C0 3 0 3 0 0 Z " fill="#F1F1F1" transform="translate(61,305)"/>
<path d="M0 0 C0.33 0 0.66 0 1 0 C1.33 5.61 1.66 11.22 2 17 C1.34 17 0.68 17 0 17 C-1.49341703 14.01316593 -1.13175178 11.25600226 -1.125 7.9375 C-1.12757812 6.66777344 -1.13015625 5.39804688 -1.1328125 4.08984375 C-1 1 -1 1 0 0 Z " fill="#EDEDED" transform="translate(72,247)"/>
<path d="M0 0 C0.66 0 1.32 0 2 0 C1.46148032 5.27749285 0.22656164 9.25645564 -2 14 C-2.66 14 -3.32 14 -4 14 C-4.33 13.01 -4.66 12.02 -5 11 C-4.34 10.34 -3.68 9.68 -3 9 C-2.835 7.845 -2.67 6.69 -2.5 5.5 C-2 2 -2 2 0 0 Z " fill="#F5F5F5" transform="translate(248,202)"/>
<path d="M0 0 C0.66 0 1.32 0 2 0 C1.52060632 4.71403788 1.03165952 8.66579301 -1 13 C-1.66 13 -2.32 13 -3 13 C-2.88490339 11.58249437 -2.75746342 10.16598831 -2.625 8.75 C-2.55539062 7.96109375 -2.48578125 7.1721875 -2.4140625 6.359375 C-1.98492887 3.914123 -1.21399362 2.15163097 0 0 Z " fill="#F2F2F2" transform="translate(271,193)"/>
<path d="M0 0 C2.75457718 0.37994168 3.82020574 0.8073633 5.75 2.875 C7 5 7 5 7 8 C7.66 8 8.32 8 9 8 C9 8.66 9 9.32 9 10 C5.32408105 8.9789114 4.0660202 8.08564783 1.6875 5 C0 2 0 2 0 0 Z " fill="#F1F1F1" transform="translate(282,273)"/>
<path d="M0 0 C0.66 0.33 1.32 0.66 2 1 C1.38125 1.7425 0.7625 2.485 0.125 3.25 C-1.60437281 5.48801188 -2.86106661 7.43739987 -4 10 C-4.99 10 -5.98 10 -7 10 C-6.47229401 6.20051686 -5.62859821 3.83079807 -3 1 C-2.01 0.67 -1.02 0.34 0 0 Z " fill="#F3F3F3" transform="translate(115,222)"/>
<path d="M0 0 C-1.11666174 3.34998521 -1.74694925 3.79340222 -4.5625 5.6875 C-5.20316406 6.12449219 -5.84382812 6.56148437 -6.50390625 7.01171875 C-6.99761719 7.33785156 -7.49132812 7.66398438 -8 8 C-8.66 7.67 -9.32 7.34 -10 7 C-7.30725018 2.12740508 -5.90493851 0 0 0 Z " fill="#EBEBEB" transform="translate(236,247)"/>
<path d="M0 0 C0.33 0.99 0.66 1.98 1 3 C-0.23399063 4.36877116 -1.48780623 5.71969166 -2.75 7.0625 C-3.79414063 8.19365234 -3.79414063 8.19365234 -4.859375 9.34765625 C-7 11 -7 11 -9.265625 10.74609375 C-9.83796875 10.49988281 -10.4103125 10.25367188 -11 10 C-10.45730469 9.52949219 -9.91460937 9.05898437 -9.35546875 8.57421875 C-8.64003906 7.95160156 -7.92460937 7.32898438 -7.1875 6.6875 C-6.47980469 6.07261719 -5.77210938 5.45773438 -5.04296875 4.82421875 C-3.29863261 3.26665665 -1.63221959 1.67341125 0 0 Z " fill="#E3E3E3" transform="translate(456,195)"/>
<path d="M0 0 C-3.44621549 3.44621549 -8.25753764 5.05150753 -13 6 C-13 5.01 -13 4.02 -13 3 C-8.44573816 0.33409063 -5.26053037 -0.31563182 0 0 Z " fill="#F2F2F2" transform="translate(153,120)"/>
<path d="M0 0 C0.66 0 1.32 0 2 0 C1.84819155 2.65664779 1.47988575 4.45217862 -0.296875 6.48046875 C-1.875 7.875 -1.875 7.875 -5 10 C-5.99 9.67 -6.98 9.34 -8 9 C-7.67 8.34 -7.34 7.68 -7 7 C-6.34 7 -5.68 7 -5 7 C-4.67 6.01 -4.34 5.02 -4 4 C-3.01 3.67 -2.02 3.34 -1 3 C-0.67 2.01 -0.34 1.02 0 0 Z " fill="#F2F2F2" transform="translate(413,233)"/>
<path d="M0 0 C2 1.375 2 1.375 4 3 C4 3.66 4 4.32 4 5 C4.99 5.33 5.98 5.66 7 6 C7 6.99 7 7.98 7 9 C7.66 9 8.32 9 9 9 C8.67 9.99 8.34 10.98 8 12 C2.00704225 6.16901408 2.00704225 6.16901408 0 3 C0 2.01 0 1.02 0 0 Z " fill="#F6F6F6" transform="translate(236,247)"/>
<path d="M0 0 C0.66 0.66 1.32 1.32 2 2 C1.525625 2.45375 1.05125 2.9075 0.5625 3.375 C-1.09027808 4.93258204 -1.09027808 4.93258204 -2 7 C-2.66 7 -3.32 7 -4 7 C-4.66 8.32 -5.32 9.64 -6 11 C-7 8 -7 8 -6.0625 5.8125 C-5.711875 5.214375 -5.36125 4.61625 -5 4 C-4.34 4 -3.68 4 -3 4 C-2.67 3.01 -2.34 2.02 -2 1 C-1.34 0.67 -0.68 0.34 0 0 Z " fill="#F6F6F6" transform="translate(288,163)"/>
<path d="M0 0 C0.99 0 1.98 0 3 0 C5.41685712 4.22949995 6.34833144 7.12335991 6 12 C2.44992282 8.0949151 1.18180084 5.02265357 0 0 Z " fill="#F0F0F0" transform="translate(241,151)"/>
<path d="M0 0 C0.99 0.66 1.98 1.32 3 2 C2.45912682 5.78611227 0.88277668 7.55400767 -2 10 C-2.66 10 -3.32 10 -4 10 C-4 9.01 -4 8.02 -4 7 C-3.01 6.34 -2.02 5.68 -1 5 C-0.27034634 2.43717258 -0.27034634 2.43717258 0 0 Z " fill="#F6F6F6" transform="translate(420,224)"/>
<path d="M0 0 C0.8125 1.6875 0.8125 1.6875 1 4 C-1.3125 6.75 -1.3125 6.75 -4 9 C-4.66 9 -5.32 9 -6 9 C-4.52307692 4.32307692 -4.52307692 4.32307692 -1.875 2.6875 C-1.25625 2.460625 -0.6375 2.23375 0 2 C0 1.34 0 0.68 0 0 Z " fill="#F5F5F5" transform="translate(249,343)"/>
<path d="M0 0 C1.485 0.99 1.485 0.99 3 2 C3 2.66 3 3.32 3 4 C3.61875 4.268125 4.2375 4.53625 4.875 4.8125 C7 6 7 6 9 9 C7.35 8.67 5.7 8.34 4 8 C4 7.34 4 6.68 4 6 C3.01 5.67 2.02 5.34 1 5 C0.67 3.35 0.34 1.7 0 0 Z " fill="#F6F6F6" transform="translate(337,330)"/>
<path d="M0 0 C-2.28459758 2.28459758 -4.12537344 2.97129748 -7.125 4.125 C-8.03507813 4.47820312 -8.94515625 4.83140625 -9.8828125 5.1953125 C-10.58148438 5.46085938 -11.28015625 5.72640625 -12 6 C-12 5.01 -12 4.02 -12 3 C-7.77050005 0.58314288 -4.87664009 -0.34833144 0 0 Z " fill="#F7F7F7" transform="translate(147,200)"/>
<path d="M0 0 C3.3 0 6.6 0 10 0 C9.67 0.99 9.34 1.98 9 3 C5.625 3.1875 5.625 3.1875 2 3 C1.34 2.01 0.68 1.02 0 0 Z " fill="#F3F3F3" transform="translate(396,360)"/>
<path d="M0 0 C5.875 3.625 5.875 3.625 7 7 C5.68 6.67 4.36 6.34 3 6 C3 5.34 3 4.68 3 4 C1.35 3.67 -0.3 3.34 -2 3 C-1.34 2.01 -0.68 1.02 0 0 Z " fill="#F8F8F8" transform="translate(417,148)"/>
<path d="M0 0 C0.66 0.33 1.32 0.66 2 1 C2.125 8.75 2.125 8.75 1 11 C0.34 11 -0.32 11 -1 11 C-0.67 7.37 -0.34 3.74 0 0 Z " fill="#ECECEC" transform="translate(230,301)"/>
<path d="M0 0 C1.485 0.99 1.485 0.99 3 2 C3.66 1.34 4.32 0.68 5 0 C5.99 0 6.98 0 8 0 C7.25 1.9375 7.25 1.9375 6 4 C4 4.875 4 4.875 2 5 C1.34 4.34 0.68 3.68 0 3 C0 2.01 0 1.02 0 0 Z " fill="#F6F6F6" transform="translate(161,298)"/>
<path d="M0 0 C1.5 1.375 1.5 1.375 3 3 C3 3.66 3 4.32 3 5 C3.66 5 4.32 5 5 5 C5.33 6.32 5.66 7.64 6 9 C2.19333016 7.55609075 0.73397418 5.65047197 -1 2 C-0.67 1.34 -0.34 0.68 0 0 Z " fill="#F0F0F0" transform="translate(154,289)"/>
<path d="M0 0 C0.66 0 1.32 0 2 0 C1.43454163 3.95820859 0.19097652 6.6659053 -2 10 C-2.66 9.67 -3.32 9.34 -4 9 C-2.94124926 5.59687262 -1.99097846 2.98646769 0 0 Z " fill="#F6F6F6" transform="translate(56,206)"/>
<path d="M0 0 C2.29109597 -0.08075665 4.58299267 -0.13907731 6.875 -0.1875 C8.78925781 -0.23970703 8.78925781 -0.23970703 10.7421875 -0.29296875 C11.81726563 -0.19628906 12.89234375 -0.09960938 14 0 C14.66 0.99 15.32 1.98 16 3 C15.0409375 2.7525 15.0409375 2.7525 14.0625 2.5 C10.63461336 1.94034504 7.44887695 2.01475307 3.98828125 2.16015625 C2 2 2 2 0 0 Z " fill="#F1F1F1" transform="translate(353,180)"/>
<path d="M0 0 C0.66 0 1.32 0 2 0 C2 0.66 2 1.32 2 2 C2.66 2 3.32 2 4 2 C5.625 3.375 5.625 3.375 7 5 C7 5.66 7 6.32 7 7 C4.03824877 6.38722388 2.61941217 5.74627478 0 4 C0 2.68 0 1.36 0 0 Z " fill="#F7F7F7" transform="translate(139,337)"/>
<path d="M0 0 C0.33 0.99 0.66 1.98 1 3 C0.360625 3.268125 -0.27875 3.53625 -0.9375 3.8125 C-3.33131686 4.88667752 -3.33131686 4.88667752 -4 8 C-4.66 8 -5.32 8 -6 8 C-5.65120368 4.74456771 -4.97866739 3.98126893 -2.4375 1.75 C-1.633125 1.1725 -0.82875 0.595 0 0 Z " fill="#F6F6F6" transform="translate(184,218)"/>
<path d="M0 0 C1.64666203 0.1135629 3.29236082 0.24117381 4.9375 0.375 C5.85402344 0.44460938 6.77054688 0.51421875 7.71484375 0.5859375 C8.84599609 0.79089844 8.84599609 0.79089844 10 1 C10.33 1.66 10.66 2.32 11 3 C3.57142857 3.14285714 3.57142857 3.14285714 0 2 C0 1.34 0 0.68 0 0 Z " fill="#F7F6F6" transform="translate(175,364)"/>
<path d="M0 0 C0 0.66 0 1.32 0 2 C-0.99 2 -1.98 2 -3 2 C-3.33 2.99 -3.66 3.98 -4 5 C-7.0625 6.1875 -7.0625 6.1875 -10 7 C-4.4893617 0 -4.4893617 0 0 0 Z " fill="#F1F1F1" transform="translate(186,236)"/>
<path d="M0 0 C-0.33 0.99 -0.66 1.98 -1 3 C-2.84765625 3.73046875 -2.84765625 3.73046875 -5.0625 4.1875 C-5.79597656 4.34605469 -6.52945312 4.50460938 -7.28515625 4.66796875 C-8.13400391 4.83232422 -8.13400391 4.83232422 -9 5 C-8.3125 3.0625 -8.3125 3.0625 -7 1 C-4.56968481 0.27090544 -2.52838375 0 0 0 Z " fill="#F2F2F2" transform="translate(352,181)"/>
<path d="M0 0 C3.37503669 1.1858237 5.64722731 2.27573689 8 5 C7.67 5.99 7.34 6.98 7 8 C6.236875 7.21625 5.47375 6.4325 4.6875 5.625 C2.09108195 2.92742283 2.09108195 2.92742283 -1 1 C-0.67 0.67 -0.34 0.34 0 0 Z " fill="#F3F3F3" transform="translate(445,177)"/>
<path d="M0 0 C0.33 0.99 0.66 1.98 1 3 C-0.8125 5 -0.8125 5 -3 7 C-3.99 7 -4.98 7 -6 7 C-4.77065985 3.31197956 -3.06140622 2.27643027 0 0 Z " fill="#F7F7F7" transform="translate(457,338)"/>
<path d="M0 0 C-0.66 0 -1.32 0 -2 0 C-2 0.66 -2 1.32 -2 2 C-3.32 2 -4.64 2 -6 2 C-6 2.66 -6 3.32 -6 4 C-6.99 4 -7.98 4 -9 4 C-8.25 2.0625 -8.25 2.0625 -7 0 C-4.04680182 -1.23843794 -3.12561472 -1.04187157 0 0 Z " fill="#F6F6F6" transform="translate(438,318)"/>
<path d="M0 0 C0.78375 0.04125 1.5675 0.0825 2.375 0.125 C1.385 0.455 0.395 0.785 -0.625 1.125 C-0.955 1.785 -1.285 2.445 -1.625 3.125 C-1.955 3.785 -2.285 4.445 -2.625 5.125 C-3.615 5.455 -4.605 5.785 -5.625 6.125 C-4.86443086 2.32215429 -4.27658992 0.20364714 0 0 Z " fill="#F6F6F6" transform="translate(130.625,206.875)"/>
<path d="M0 0 C3.16115776 1.36983503 3.9927092 1.9890638 6 5 C5.67 5.99 5.34 6.98 5 8 C4.34 7.34 3.68 6.68 3 6 C3 5.01 3 4.02 3 3 C2.01 3 1.02 3 0 3 C0 2.01 0 1.02 0 0 Z " fill="#F8F8F8" transform="translate(141,291)"/>
<path d="M0 0 C0.99 0 1.98 0 3 0 C1.88820837 3.33537489 0.52588702 4.63707344 -2 7 C-2.66 6.67 -3.32 6.34 -4 6 C-1.125 1.125 -1.125 1.125 0 0 Z " fill="#F1F1F1" transform="translate(121,213)"/>
<path d="M0 0 C0.66 0.33 1.32 0.66 2 1 C0.07423885 3.43929746 -1.80090595 5.80090595 -4 8 C-4.33 7.34 -4.66 6.68 -5 6 C-2.59016393 1.29508197 -2.59016393 1.29508197 0 0 Z " fill="#F7F7F7" transform="translate(85,176)"/>
<path d="M0 0 C0.33 0 0.66 0 1 0 C1.33 3.63 1.66 7.26 2 11 C1.34 10.67 0.68 10.34 0 10 C-1.29411765 2.58823529 -1.29411765 2.58823529 0 0 Z " fill="#F5F5F5" transform="translate(132,260)"/>
<path d="M0 0 C2.375 0.1875 2.375 0.1875 5 1 C6.3125 3.5625 6.3125 3.5625 7 6 C6.01 5.67 5.02 5.34 4 5 C4 4.34 4 3.68 4 3 C2.68 2.34 1.36 1.68 0 1 C0 0.67 0 0.34 0 0 Z " fill="#F5F5F5" transform="translate(357,236)"/>
<path d="M0 0 C0.66 0 1.32 0 2 0 C4.1519437 3.22791555 4.20086443 4.28400809 4 8 C3.34 7.67 2.68 7.34 2 7 C2 6.01 2 5.02 2 4 C1.34 4 0.68 4 0 4 C0 2.68 0 1.36 0 0 Z " fill="#EBEBEB" transform="translate(246,164)"/>
<path d="M0 0 C2.64 0.66 5.28 1.32 8 2 C8 2.66 8 3.32 8 4 C5.69 3.67 3.38 3.34 1 3 C0.67 2.01 0.34 1.02 0 0 Z " fill="#F5F5F5" transform="translate(89,323)"/>
<path d="M0 0 C3.16115776 1.36983503 3.9927092 1.9890638 6 5 C5.67 5.99 5.34 6.98 5 8 C2.27573689 5.64722731 1.1858237 3.37503669 0 0 Z " fill="#F2F2F2" transform="translate(309,302)"/>
<path d="M0 0 C0 0.99 0 1.98 0 3 C-1.98 3.99 -3.96 4.98 -6 6 C-5.6875 4.125 -5.6875 4.125 -5 2 C-2 0 -2 0 0 0 Z " fill="#F4F4F4" transform="translate(163,257)"/>
<path d="M0 0 C1.485 0.99 1.485 0.99 3 2 C3.1875 5.125 3.1875 5.125 3 8 C2.01 7.34 1.02 6.68 0 6 C-0.1875 2.875 -0.1875 2.875 0 0 Z " fill="#F0F0F0" transform="translate(268,235)"/>
</svg>
