<?xml version="1.0" encoding="UTF-8"?>
<svg version="1.1" xmlns="http://www.w3.org/2000/svg" width="500" height="500">
<path d="M0 0 C12.73016995 10.65218658 22.24034731 26.5578675 24.46484375 43.0625 C25.47935395 56.43768509 26.28484277 70.67591315 20.46484375 83.0625 C20.19687988 83.64805664 19.92891602 84.23361328 19.65283203 84.83691406 C12.14189837 101.12112318 12.14189837 101.12112318 5.07470703 106.67797852 C3.31384402 108.19236343 1.88989 109.81309533 0.39453125 111.58984375 C-4.03331282 116.71454989 -8.79999918 121.47371334 -13.59765625 126.25 C-14.46970703 127.12591797 -15.34175781 128.00183594 -16.24023438 128.90429688 C-23.34145633 135.99476755 -23.34145633 135.99476755 -26.71875 138.67578125 C-29.71903422 141.21832446 -32.13559787 143.96090457 -34.68310547 146.94384766 C-37.82584842 150.53898651 -41.21282416 153.88449141 -44.59765625 157.25 C-45.27892578 157.93513672 -45.96019531 158.62027344 -46.66210938 159.32617188 C-50.47081569 163.12756079 -54.35581123 166.67417855 -58.53515625 170.0625 C-59.55195936 171.04540968 -60.56253844 172.03584787 -61.53515625 173.0625 C-65.36138368 171.5036666 -67.78663004 169.10816418 -70.53515625 166.0625 C-70.86515625 165.0725 -71.19515625 164.0825 -71.53515625 163.0625 C-72.52515625 162.7325 -73.51515625 162.4025 -74.53515625 162.0625 C-77.40451168 158.37332874 -78.53515625 156.81817676 -78.53515625 152.0625 C-79.19515625 152.0625 -79.85515625 152.0625 -80.53515625 152.0625 C-81.47359769 147.27644867 -81.77826178 144.41995274 -79.53515625 140.0625 C-77.546875 138 -77.546875 138 -75.22265625 136.0625 C-71.8207897 133.19777027 -68.65623243 130.2325517 -65.53515625 127.0625 C-64.19235186 125.71780506 -62.84850611 124.3741496 -61.50390625 123.03125 C-60.77558594 122.30292969 -60.04726562 121.57460937 -59.296875 120.82421875 C-57.05338542 118.58072917 -54.80989583 116.33723958 -52.56640625 114.09375 C-51.86749268 113.39467529 -51.1685791 112.69560059 -50.44848633 111.9753418 C-48.8678804 110.39513924 -47.28571062 108.81650112 -45.703125 107.23828125 C-44.39292326 105.92335806 -43.09086201 104.60015317 -41.8046875 103.26171875 C-40.41941698 101.82445416 -38.97837025 100.44157116 -37.53515625 99.0625 C-36.87515625 99.0625 -36.21515625 99.0625 -35.53515625 99.0625 C-35.27250977 98.47098145 -35.00986328 97.87946289 -34.73925781 97.27001953 C-33.47652809 94.95501504 -32.185781 93.53967025 -30.26953125 91.7421875 C-29.62910889 91.12907715 -28.98868652 90.5159668 -28.32885742 89.88427734 C-27.65443604 89.24184082 -26.98001465 88.5994043 -26.28515625 87.9375 C-20.68533176 82.47868066 -15.82144768 77.263537 -12.53515625 70.0625 C-12.16777344 69.32644531 -11.80039063 68.59039062 -11.421875 67.83203125 C-8.6462279 59.16271938 -9.33098669 47.26740711 -13.24609375 39.11328125 C-15.0212694 36.28913817 -17.04121383 33.82853972 -19.36328125 31.4375 C-20.53515625 30.0625 -20.53515625 30.0625 -20.53515625 28.0625 C-21.52515625 27.7325 -22.51515625 27.4025 -23.53515625 27.0625 C-23.53515625 26.4025 -23.53515625 25.7425 -23.53515625 25.0625 C-24.07140625 24.959375 -24.60765625 24.85625 -25.16015625 24.75 C-27.53515625 24.0625 -27.53515625 24.0625 -30.09765625 22.6875 C-41.16067121 17.45771111 -50.44922007 17.29921915 -62.08203125 20.7890625 C-68.7187 23.23652179 -73.66634033 26.99893145 -78.53515625 32.0625 C-79.19515625 32.0625 -79.85515625 32.0625 -80.53515625 32.0625 C-80.86515625 33.0525 -81.19515625 34.0425 -81.53515625 35.0625 C-83.47265625 37.25 -83.47265625 37.25 -85.53515625 39.0625 C-86.19515625 39.0625 -86.85515625 39.0625 -87.53515625 39.0625 C-88.19515625 40.3825 -88.85515625 41.7025 -89.53515625 43.0625 C-90.19515625 43.0625 -90.85515625 43.0625 -91.53515625 43.0625 C-91.86515625 44.0525 -92.19515625 45.0425 -92.53515625 46.0625 C-94.47265625 48.25 -94.47265625 48.25 -96.53515625 50.0625 C-97.19515625 50.0625 -97.85515625 50.0625 -98.53515625 50.0625 C-99.03015625 51.5475 -99.03015625 51.5475 -99.53515625 53.0625 C-101.51776051 54.74982277 -103.51839045 56.41616057 -105.53515625 58.0625 C-106.19515625 59.0525 -106.85515625 60.0425 -107.53515625 61.0625 C-108.19515625 61.0625 -108.85515625 61.0625 -109.53515625 61.0625 C-110.03015625 62.5475 -110.03015625 62.5475 -110.53515625 64.0625 C-112.47265625 66.25 -112.47265625 66.25 -114.53515625 68.0625 C-115.19515625 68.0625 -115.85515625 68.0625 -116.53515625 68.0625 C-116.921875 68.93648437 -116.921875 68.93648437 -117.31640625 69.828125 C-118.63349642 72.2427903 -120.08604009 73.87990177 -122.03515625 75.8125 C-122.64359375 76.42609375 -123.25203125 77.0396875 -123.87890625 77.671875 C-125.53515625 79.0625 -125.53515625 79.0625 -127.53515625 79.0625 C-128.03015625 80.5475 -128.03015625 80.5475 -128.53515625 82.0625 C-130.1015625 83.5703125 -130.1015625 83.5703125 -132.09765625 85.1875 C-140.27876009 92.19568572 -145.59882416 98.99281325 -149.53515625 109.0625 C-149.89609375 109.94035156 -150.25703125 110.81820312 -150.62890625 111.72265625 C-155.04317548 123.11984274 -151.92343291 133.98115782 -147.4375 144.73046875 C-146.62411254 146.83259998 -146.02502849 148.86565027 -145.53515625 151.0625 C-144.87515625 151.0625 -144.21515625 151.0625 -143.53515625 151.0625 C-141.41015625 152.9375 -141.41015625 152.9375 -139.53515625 155.0625 C-139.53515625 155.7225 -139.53515625 156.3825 -139.53515625 157.0625 C-138.87515625 157.31 -138.21515625 157.5575 -137.53515625 157.8125 C-135.11292768 158.8217619 -132.85723286 159.9155851 -130.53515625 161.125 C-127.5485357 162.64659267 -124.89490691 163.64253117 -121.53515625 164.0625 C-121.99535156 163.08796875 -122.45554687 162.1134375 -122.9296875 161.109375 C-124.71617417 156.92935328 -125.52832274 152.78804618 -126.22265625 148.3125 C-126.34785645 147.51537598 -126.47305664 146.71825195 -126.60205078 145.89697266 C-129.62058786 125.67072078 -124.84308234 108.00992887 -113.53515625 91.0625 C-103.98830401 78.19326313 -88.90484135 69.27709616 -73.21875 66.46875 C-57.78983476 64.76715171 -42.7384453 65.2603073 -29.53515625 74.0625 C-30.01338248 78.58970835 -31.50633543 80.47910558 -34.78515625 83.5625 C-35.60113281 84.34238281 -36.41710937 85.12226563 -37.2578125 85.92578125 C-38.00933594 86.63089844 -38.76085937 87.33601563 -39.53515625 88.0625 C-40.42203125 88.949375 -41.30890625 89.83625 -42.22265625 90.75 C-42.98578125 91.513125 -43.74890625 92.27625 -44.53515625 93.0625 C-45.29828125 94.114375 -46.06140625 95.16625 -46.84765625 96.25 C-50.56893102 100.04859996 -55.42718734 99.92218685 -60.43115234 100.38671875 C-70.22972368 101.32399299 -78.62090582 104.84822292 -85.53515625 112.0625 C-92.36328936 122.638773 -93.29212244 134.70619737 -90.734375 146.87109375 C-87.42564758 157.07016074 -81.31223565 164.62030378 -74.47265625 172.6875 C-72.53515625 175.0625 -72.53515625 175.0625 -72.53515625 177.0625 C-71.87515625 177.0625 -71.21515625 177.0625 -70.53515625 177.0625 C-69.32965393 178.50240555 -68.12847384 179.94631384 -66.95703125 181.4140625 C-64.76175066 183.95914054 -62.1382637 185.9474752 -59.53515625 188.0625 C-57.86848958 189.72916667 -56.20182292 191.39583333 -54.53515625 193.0625 C-53.54515625 193.7225 -52.55515625 194.3825 -51.53515625 195.0625 C-51.53515625 195.7225 -51.53515625 196.3825 -51.53515625 197.0625 C-50.81328125 197.33964844 -50.09140625 197.61679687 -49.34765625 197.90234375 C-45.79025324 199.36977249 -42.43788609 201.14965632 -39.03515625 202.94140625 C-31.81973663 206.17707099 -23.6243003 206.12026052 -16.28515625 203.375 C-11.62527051 201.31290883 -6.8963105 198.7848085 -4.53515625 194.0625 C-3.87515625 194.0625 -3.21515625 194.0625 -2.53515625 194.0625 C-2.41140625 193.485 -2.28765625 192.9075 -2.16015625 192.3125 C-1.53515625 190.0625 -1.53515625 190.0625 -0.54296875 188.34765625 C2.08378912 182.3916355 1.91354093 174.55072979 0.77734375 168.25 C-0.62014018 164.85611045 -2.06964443 161.49677606 -3.6328125 158.17578125 C-4.53515625 156.0625 -4.53515625 156.0625 -4.96875 153.85546875 C-5.24912109 152.96794922 -5.24912109 152.96794922 -5.53515625 152.0625 C-6.52515625 151.7325 -7.51515625 151.4025 -8.53515625 151.0625 C-10.61328125 148.91796875 -10.61328125 148.91796875 -12.78515625 146.25 C-13.87570313 144.94095703 -13.87570313 144.94095703 -14.98828125 143.60546875 C-16.53515625 141.0625 -16.53515625 141.0625 -16.44140625 138.88671875 C-15.21395401 136.41594205 -13.29151706 135.08053244 -11.14453125 133.4140625 C-9.26098386 131.91301745 -9.26098386 131.91301745 -7.03515625 129.0625 C-4.39096419 125.88946953 -1.73870121 123.65260018 1.46484375 121.0625 C2.14546875 120.299375 2.82609375 119.53625 3.52734375 118.75 C5.46484375 117.0625 5.46484375 117.0625 7.72265625 116.55859375 C11.97406162 117.33983491 13.68210105 120.15273354 16.27734375 123.4375 C16.77943359 124.04078125 17.28152344 124.6440625 17.79882812 125.265625 C21.46484375 129.75462372 21.46484375 129.75462372 21.46484375 132.0625 C22.12484375 132.0625 22.78484375 132.0625 23.46484375 132.0625 C35.03311164 151.0434444 40.17806157 171.41570351 35.23046875 193.64453125 C33.74856505 198.32462509 31.67467453 202.68873997 29.46484375 207.0625 C29.00980469 208.04992187 28.55476562 209.03734375 28.0859375 210.0546875 C26.35743704 213.26178473 24.41418076 215.68481151 21.96484375 218.375 C21.19140625 219.23738281 20.41796875 220.09976563 19.62109375 220.98828125 C17.46484375 223.0625 17.46484375 223.0625 14.46484375 224.0625 C14.13484375 225.0525 13.80484375 226.0425 13.46484375 227.0625 C11.40234375 227.75 11.40234375 227.75 9.46484375 228.0625 C9.46484375 228.7225 9.46484375 229.3825 9.46484375 230.0625 C-7.94885673 239.99043289 -25.77787569 242.6111065 -45.53515625 238.0625 C-49.66367835 236.64285024 -53.59456209 234.93682272 -57.53515625 233.0625 C-58.31117188 232.69640625 -59.0871875 232.3303125 -59.88671875 231.953125 C-63.53495361 230.17683088 -67.18866719 228.36321123 -70.53515625 226.0625 C-70.53515625 225.4025 -70.53515625 224.7425 -70.53515625 224.0625 C-71.1178125 223.78664063 -71.70046875 223.51078125 -72.30078125 223.2265625 C-78.07600499 220.21779209 -82.77047022 216.10301733 -86.8359375 211.04296875 C-93.35283489 202.90781882 -93.35283489 202.90781882 -102.41552734 198.36767578 C-108.61520536 197.82218303 -114.73790225 198.31761389 -120.921875 198.87744141 C-134.6657811 199.85071129 -146.94677095 193.10117379 -157.53515625 185.0625 C-158.72238281 184.21558594 -158.72238281 184.21558594 -159.93359375 183.3515625 C-164.11461647 180.34416019 -164.11461647 180.34416019 -165.53515625 179.0625 C-165.53515625 178.4025 -165.53515625 177.7425 -165.53515625 177.0625 C-166.52515625 176.7325 -167.51515625 176.4025 -168.53515625 176.0625 C-172.53515625 171.60535714 -172.53515625 171.60535714 -172.53515625 169.0625 C-173.19515625 169.0625 -173.85515625 169.0625 -174.53515625 169.0625 C-186.50027886 147.54270424 -191.44737652 127.0321706 -184.875 102.609375 C-183.27729425 97.4757631 -181.0398779 92.81283416 -178.53515625 88.0625 C-177.87515625 88.0625 -177.21515625 88.0625 -176.53515625 88.0625 C-176.49390625 87.2375 -176.45265625 86.4125 -176.41015625 85.5625 C-175.21713298 80.7904069 -172.56994859 77.83787827 -169.53515625 74.0625 C-168.87515625 73.0725 -168.21515625 72.0825 -167.53515625 71.0625 C-166.87515625 71.0625 -166.21515625 71.0625 -165.53515625 71.0625 C-165.30828125 70.505625 -165.08140625 69.94875 -164.84765625 69.375 C-163.16798907 66.41558639 -160.96763773 64.43841214 -158.53515625 62.0625 C-156.86448492 60.06584402 -155.19762639 58.06598966 -153.53515625 56.0625 C-151.34765625 53.6875 -151.34765625 53.6875 -149.53515625 52.0625 C-148.87515625 52.0625 -148.21515625 52.0625 -147.53515625 52.0625 C-146.87515625 50.7425 -146.21515625 49.4225 -145.53515625 48.0625 C-144.87515625 48.0625 -144.21515625 48.0625 -143.53515625 48.0625 C-143.20515625 47.0725 -142.87515625 46.0825 -142.53515625 45.0625 C-141.87515625 45.0625 -141.21515625 45.0625 -140.53515625 45.0625 C-139.87515625 43.7425 -139.21515625 42.4225 -138.53515625 41.0625 C-137.87515625 41.0625 -137.21515625 41.0625 -136.53515625 41.0625 C-135.87515625 39.7425 -135.21515625 38.4225 -134.53515625 37.0625 C-133.87515625 37.0625 -133.21515625 37.0625 -132.53515625 37.0625 C-132.20515625 36.0725 -131.87515625 35.0825 -131.53515625 34.0625 C-130.87515625 34.0625 -130.21515625 34.0625 -129.53515625 34.0625 C-128.87515625 32.7425 -128.21515625 31.4225 -127.53515625 30.0625 C-126.87515625 30.0625 -126.21515625 30.0625 -125.53515625 30.0625 C-125.26703125 29.464375 -124.99890625 28.86625 -124.72265625 28.25 C-123.53598219 26.06402146 -122.43916512 24.64917406 -120.53515625 23.0625 C-119.87515625 23.0625 -119.21515625 23.0625 -118.53515625 23.0625 C-117.87515625 21.7425 -117.21515625 20.4225 -116.53515625 19.0625 C-115.87515625 19.0625 -115.21515625 19.0625 -114.53515625 19.0625 C-114.20515625 18.0725 -113.87515625 17.0825 -113.53515625 16.0625 C-111.59765625 13.875 -111.59765625 13.875 -109.53515625 12.0625 C-108.87515625 12.0625 -108.21515625 12.0625 -107.53515625 12.0625 C-106.87515625 10.7425 -106.21515625 9.4225 -105.53515625 8.0625 C-104.87515625 8.0625 -104.21515625 8.0625 -103.53515625 8.0625 C-103.04015625 6.5775 -103.04015625 6.5775 -102.53515625 5.0625 C-101.87515625 5.0625 -101.21515625 5.0625 -100.53515625 5.0625 C-100.53515625 4.4025 -100.53515625 3.7425 -100.53515625 3.0625 C-99.73078125 2.794375 -98.92640625 2.52625 -98.09765625 2.25 C-96.82921875 1.6621875 -96.82921875 1.6621875 -95.53515625 1.0625 C-95.04015625 -0.4225 -95.04015625 -0.4225 -94.53515625 -1.9375 C-89.27801339 -5.9375 -89.27801339 -5.9375 -85.53515625 -5.9375 C-85.53515625 -6.5975 -85.53515625 -7.2575 -85.53515625 -7.9375 C-55.59334781 -19.29473768 -26.5708869 -20.12830456 0 0 Z " fill="#212121" transform="translate(219.53515625,129.9375)"/>
<path d="M0 0 C0.66209473 -0.00095673 1.32418945 -0.00191345 2.00634766 -0.00289917 C3.40852961 -0.00358076 4.8107147 -0.00172792 6.21289062 0.00244141 C8.36595713 0.00779004 10.51881502 0.0024958 12.671875 -0.00390625 C14.03125046 -0.00324546 15.3906258 -0.00196429 16.75 0 C18.61785156 0.00169189 18.61785156 0.00169189 20.5234375 0.00341797 C23.375 0.1328125 23.375 0.1328125 24.375 1.1328125 C26.02850038 1.39030741 27.68263151 1.64426079 29.33935547 1.88012695 C39.439385 3.39736434 47.55955787 7.10624935 56.375 12.1328125 C57.37015625 12.69871094 58.3653125 13.26460937 59.390625 13.84765625 C61.74830763 15.234736 64.06741871 16.66435168 66.375 18.1328125 C67.014375 18.5246875 67.65375 18.9165625 68.3125 19.3203125 C69.70626209 20.19786641 71.04905724 21.15580205 72.375 22.1328125 C72.375 22.7928125 72.375 23.4528125 72.375 24.1328125 C74.355 25.1228125 74.355 25.1228125 76.375 26.1328125 C76.375 26.7928125 76.375 27.4528125 76.375 28.1328125 C76.95765625 28.390625 77.5403125 28.6484375 78.140625 28.9140625 C80.5552903 30.23115267 82.19240177 31.68369634 84.125 33.6328125 C84.73859375 34.24125 85.3521875 34.8496875 85.984375 35.4765625 C87.375 37.1328125 87.375 37.1328125 87.375 39.1328125 C88.365 39.4628125 89.355 39.7928125 90.375 40.1328125 C90.375 40.7928125 90.375 41.4528125 90.375 42.1328125 C91.695 42.7928125 93.015 43.4528125 94.375 44.1328125 C94.375 44.7928125 94.375 45.4528125 94.375 46.1328125 C95.365 46.4628125 96.355 46.7928125 97.375 47.1328125 C99.5625 49.0703125 99.5625 49.0703125 101.375 51.1328125 C101.375 51.7928125 101.375 52.4528125 101.375 53.1328125 C102.365 53.4628125 103.355 53.7928125 104.375 54.1328125 C106.19921875 55.875 106.19921875 55.875 108.0625 58.0078125 C108.68511719 58.70648438 109.30773437 59.40515625 109.94921875 60.125 C111.375 62.1328125 111.375 62.1328125 111.375 65.1328125 C109.5 67.3203125 109.5 67.3203125 107.375 69.1328125 C106.715 69.1328125 106.055 69.1328125 105.375 69.1328125 C105.00375 69.9990625 105.00375 69.9990625 104.625 70.8828125 C103.19200012 73.46221229 101.59075324 75.19402842 99.375 77.1328125 C98.715 77.1328125 98.055 77.1328125 97.375 77.1328125 C97.045 78.1228125 96.715 79.1128125 96.375 80.1328125 C94.88671875 81.73828125 94.88671875 81.73828125 93.0625 83.3203125 C92.46824219 83.85011719 91.87398437 84.37992187 91.26171875 84.92578125 C89.375 86.1328125 89.375 86.1328125 85.375 86.1328125 C83.3125 83.7578125 83.3125 83.7578125 81.375 81.1328125 C80.385 80.4728125 79.395 79.8128125 78.375 79.1328125 C78.375 78.4728125 78.375 77.8128125 78.375 77.1328125 C77.48748047 76.76929688 77.48748047 76.76929688 76.58203125 76.3984375 C73.96457361 74.89745294 72.80753638 73.33169411 71.0625 70.8828125 C68.7359716 67.75559575 66.45259645 65.16720332 63.4375 62.6953125 C62.426875 61.8496875 61.41625 61.0040625 60.375 60.1328125 C60.375 59.4728125 60.375 58.8128125 60.375 58.1328125 C59.385 57.8028125 58.395 57.4728125 57.375 57.1328125 C55.1875 55.1953125 55.1875 55.1953125 53.375 53.1328125 C53.375 52.4728125 53.375 51.8128125 53.375 51.1328125 C52.055 50.8028125 50.735 50.4728125 49.375 50.1328125 C49.375 49.4728125 49.375 48.8128125 49.375 48.1328125 C48.653125 47.8646875 47.93125 47.5965625 47.1875 47.3203125 C44.38346639 46.1363872 41.97677728 44.70757243 39.375 43.1328125 C24.29951246 34.53387694 8.69357067 33.03630695 -8.1953125 37.0234375 C-16.94631722 39.85405862 -23.84671024 45.09129337 -30.625 51.1328125 C-31.285 51.1328125 -31.945 51.1328125 -32.625 51.1328125 C-32.89570313 51.70515625 -33.16640625 52.2775 -33.4453125 52.8671875 C-34.64904373 55.17898919 -36.01427015 57.24274566 -37.5 59.3828125 C-44.64479446 70.03916044 -48.21222756 80.4062724 -48.125 93.3203125 C-48.11533203 94.82706543 -48.11533203 94.82706543 -48.10546875 96.36425781 C-47.77069286 110.10328417 -43.51542053 120.57967973 -34.625 131.1328125 C-34.01140625 131.87273437 -33.3978125 132.61265625 -32.765625 133.375 C-30.04025515 136.57067704 -27.19872971 139.58120751 -24.1875 142.5078125 C-21.625 145.1328125 -21.625 145.1328125 -21.625 147.1328125 C-21.03332031 147.39835938 -20.44164062 147.66390625 -19.83203125 147.9375 C-17.56337477 149.16618829 -16.10652395 150.41669007 -14.3125 152.2578125 C-13.70792969 152.87785156 -13.10335937 153.49789062 -12.48046875 154.13671875 C-10.6415582 156.11499936 -8.87905614 158.14168722 -7.125 160.1953125 C-4.93134052 162.74642096 -2.72137641 164.99427925 -0.125 167.1328125 C3.13959127 169.8230102 5.80304571 172.81482107 8.53125 176.0390625 C11.15185966 179.01500906 14.00124744 181.73504441 16.87109375 184.46875 C18.375 186.1328125 18.375 186.1328125 18.375 188.1328125 C19.17164063 188.51953125 19.17164063 188.51953125 19.984375 188.9140625 C21.78639744 189.83274061 23.56395728 190.7996351 25.328125 191.7890625 C38.08140172 198.92122673 50.44925727 201.78147855 65.109375 197.9765625 C69.19745271 196.45410598 73.02744304 194.42691059 76.87109375 192.375 C79.375 191.1328125 79.375 191.1328125 81.375 191.1328125 C81.375 190.4728125 81.375 189.8128125 81.375 189.1328125 C84.89579868 186.43080421 87.87540597 184.28797091 92.375 184.1328125 C94.875 186.046875 94.875 186.046875 97.375 188.7578125 C98.2 189.63695312 99.025 190.51609375 99.875 191.421875 C101.1125 192.76378906 101.1125 192.76378906 102.375 194.1328125 C104.92240628 196.72173207 107.4725335 199.21950894 110.1875 201.6328125 C112.375 204.1328125 112.375 204.1328125 113.125 206.5703125 C111.93986046 210.61953927 108.83284068 212.85627033 105.375 215.1328125 C104.715 215.1328125 104.055 215.1328125 103.375 215.1328125 C103.375 215.7928125 103.375 216.4528125 103.375 217.1328125 C87.66096843 228.01175743 71.25606549 233.30905298 52.25 233.3203125 C51.18523437 233.33255859 50.12046875 233.34480469 49.0234375 233.35742188 C30.21638554 233.39165801 15.78776966 227.40799228 0.375 217.1328125 C0.375 216.4728125 0.375 215.8128125 0.375 215.1328125 C-0.3675 214.8853125 -1.11 214.6378125 -1.875 214.3828125 C-4.85523087 213.02816211 -6.52419252 211.6226584 -8.625 209.1328125 C-8.625 208.4728125 -8.625 207.8128125 -8.625 207.1328125 C-9.615 206.8028125 -10.605 206.4728125 -11.625 206.1328125 C-12.84488911 204.68213356 -14.06070484 203.227419 -15.23828125 201.7421875 C-16.77784848 199.86641505 -16.77784848 199.86641505 -19.625 197.6328125 C-22.73205716 195.0435982 -25.04113738 192.23344764 -27.625 189.1328125 C-28.615 188.3078125 -29.605 187.4828125 -30.625 186.6328125 C-33.73657653 184.03983206 -36.07564209 181.27048378 -38.625 178.1328125 C-40.91295016 175.79383 -43.24312856 173.50484606 -45.58666992 171.22167969 C-65.54376438 151.76680492 -83.02725683 129.66941971 -84.0234375 100.4140625 C-84.03125901 98.15364586 -84.02340941 95.89312145 -84 93.6328125 C-84.01160156 92.51261719 -84.02320313 91.39242187 -84.03515625 90.23828125 C-83.99892767 79.76822295 -82.02547531 69.9089962 -78.125 60.1953125 C-77.7228125 59.17566406 -77.320625 58.15601563 -76.90625 57.10546875 C-72.90355277 47.81872305 -68.2399576 37.94619562 -60.625 31.1328125 C-59.87863281 30.20210937 -59.13226563 29.27140625 -58.36328125 28.3125 C-55.7370951 25.12757144 -52.73546139 22.59814469 -49.4375 20.1328125 C-48.87305176 19.70564941 -48.30860352 19.27848633 -47.72705078 18.83837891 C-34.71902322 9.1328125 -34.71902322 9.1328125 -29.625 9.1328125 C-29.625 8.4728125 -29.625 7.8128125 -29.625 7.1328125 C-23.04906873 4.51261551 -16.74950711 2.58935961 -9.7421875 1.52734375 C-1.55349804 0.00140715 -1.55349804 0.00140715 0 0 Z " fill="#232323" transform="translate(342.625,128.8671875)"/>
<path d="M0 0 C6.70597065 4.27556432 12.40231378 8.99926158 17.421875 15.1640625 C19.49599363 17.57702229 21.8602885 19.48568341 24.3125 21.5 C26.64214942 23.57079949 28.53802319 25.92351478 30.51171875 28.328125 C32.02206315 30.02478486 33.60007881 31.39921381 35.375 32.8125 C36.24125 33.534375 37.1075 34.25625 38 35 C38 35.66 38 36.32 38 37 C39.485 37.495 39.485 37.495 41 38 C41.625 40.3125 41.625 40.3125 42 43 C41.34 43.99 40.68 44.98 40 46 C39.34 46 38.68 46 38 46 C37.34 47.32 36.68 48.64 36 50 C35.34 50 34.68 50 34 50 C34 50.66 34 51.32 34 52 C32.42578125 53.55078125 32.42578125 53.55078125 30.3125 55.3125 C27.78034533 57.44343298 25.55600182 59.48530033 23.3125 61.9375 C21 64 21 64 18.5625 64.75 C15.03809027 63.71846544 13.75423893 61.69482006 11.53125 58.859375 C9.90451778 56.76526843 9.90451778 56.76526843 7.0625 54.5625 C3.97279832 51.97723941 1.53609373 49.2460109 -1.06640625 46.19140625 C-4.52117445 42.27600229 -8.27704226 38.65802243 -12 35 C-12.49113281 34.43796875 -12.98226562 33.8759375 -13.48828125 33.296875 C-16.4287116 30.77433527 -20.26044006 30.79074665 -24 31 C-26.73061576 32.31379818 -26.73061576 32.31379818 -28 35 C-28.6553938 40.14952271 -27.90947412 42.80838475 -25 47 C-23.10812009 49.11320618 -21.0995394 51.08997098 -19.0625 53.0625 C-18.53720703 53.57876953 -18.01191406 54.09503906 -17.47070312 54.62695312 C-15.2048124 56.85314114 -12.93089011 59.06525154 -10.62109375 61.24609375 C-9 63 -9 63 -9 65 C-8.44731445 65.22816406 -7.89462891 65.45632812 -7.32519531 65.69140625 C-4.32753597 67.37845518 -2.2323494 69.50812518 0.203125 71.9375 C0.6857782 72.41823975 1.1684314 72.89897949 1.66571045 73.39428711 C2.67999064 74.40721093 3.69176804 75.42264638 4.70117188 76.44042969 C6.25171972 78.00173165 7.81270503 79.55202497 9.375 81.1015625 C10.36001734 82.08790061 11.34441453 83.0748585 12.328125 84.0625 C13.2243457 84.96097656 14.12056641 85.85945313 15.04394531 86.78515625 C17 89 17 89 17 91 C18.485 91.495 18.485 91.495 20 92 C22.35172983 94.08296071 24.32938582 96.33710828 26 99 C25.875 101.9375 25.875 101.9375 25 104 C24.34 104 23.68 104 23 104 C22.63648438 104.87785156 22.63648438 104.87785156 22.265625 105.7734375 C19.45811533 110.71257489 13.98458921 114.06845813 8.9375 116.4375 C-0.03090786 118.1548547 -0.03090786 118.1548547 -4.37109375 115.609375 C-8.54211923 112.45884672 -11.8135825 109.14234275 -15 105 C-16.08684646 104.04247451 -17.1930927 103.10674838 -18.3125 102.1875 C-21.7090518 99.36552549 -24.51660115 96.23598061 -27.37890625 92.8828125 C-30.35565008 89.42548593 -33.49425665 86.40253042 -37.0625 83.5625 C-40.08182223 80.92862316 -41.79060416 78.31409376 -44 75 C-45.46844793 73.79129147 -46.93755159 72.58334829 -48.41308594 71.38330078 C-57.2989557 63.63755647 -63.22326871 53.21507567 -64.33203125 41.48828125 C-64.72035282 28.18467176 -60.90619295 18.1461685 -52.28125 7.97265625 C-50.6875 6.3125 -50.6875 6.3125 -48 4 C-47.34 4 -46.68 4 -46 4 C-46 3.34 -46 2.68 -46 2 C-44.65144233 1.19881608 -43.29578257 0.40958392 -41.9375 -0.375 C-41.18339844 -0.81585938 -40.42929687 -1.25671875 -39.65234375 -1.7109375 C-27.18649991 -7.76944776 -11.95037479 -6.54606517 0 0 Z " fill="#292929" transform="translate(374,185)"/>
<path d="M0 0 C5.94 0 11.88 0 18 0 C18 0.66 18 1.32 18 2 C19.670625 2.061875 19.670625 2.061875 21.375 2.125 C26.94679507 2.80278545 31.62478699 5.5714705 36 9 C36.33 9.99 36.66 10.98 37 12 C36.01 11.67 35.02 11.34 34 11 C34 10.34 34 9.68 34 9 C33.46375 8.896875 32.9275 8.79375 32.375 8.6875 C30 8 30 8 27.4375 6.625 C16.37448504 1.39521111 7.08593618 1.23671915 -4.546875 4.7265625 C-11.18354375 7.17402179 -16.13118408 10.93643145 -21 16 C-21.66 16 -22.32 16 -23 16 C-23.495 17.485 -23.495 17.485 -24 19 C-25.9375 21.1875 -25.9375 21.1875 -28 23 C-28.66 23 -29.32 23 -30 23 C-30.66 24.32 -31.32 25.64 -32 27 C-32.66 27 -33.32 27 -34 27 C-34.495 28.485 -34.495 28.485 -35 30 C-36.9375 32.1875 -36.9375 32.1875 -39 34 C-39.66 34 -40.32 34 -41 34 C-41.33 34.99 -41.66 35.98 -42 37 C-43.98260426 38.68732277 -45.9832342 40.35366057 -48 42 C-48.66 42.99 -49.32 43.98 -50 45 C-50.66 45 -51.32 45 -52 45 C-52.33 45.99 -52.66 46.98 -53 48 C-54.9375 50.1875 -54.9375 50.1875 -57 52 C-57.66 52 -58.32 52 -59 52 C-59.38671875 52.87398437 -59.38671875 52.87398437 -59.78125 53.765625 C-61.09834017 56.1802903 -62.55088384 57.81740177 -64.5 59.75 C-65.41265625 60.67039062 -65.41265625 60.67039062 -66.34375 61.609375 C-68 63 -68 63 -70 63 C-70.33 63.99 -70.66 64.98 -71 66 C-72.56640625 67.5078125 -72.56640625 67.5078125 -74.5625 69.125 C-82.74360384 76.13318572 -88.06366791 82.93031325 -92 93 C-92.37382813 93.93328125 -92.74765625 94.8665625 -93.1328125 95.828125 C-93.56207031 96.90320313 -93.56207031 96.90320313 -94 98 C-95.03311995 94.8587569 -94.99963588 93.1755817 -93.75 90.125 C-93.47027344 89.43664062 -93.19054687 88.74828125 -92.90234375 88.0390625 C-91.69430206 85.30920205 -90.38747945 82.642818 -89 80 C-88.34 80 -87.68 80 -87 80 C-86.74710205 79.42113037 -86.4942041 78.84226074 -86.23364258 78.24584961 C-84.85380069 75.73384376 -83.30243359 74.07521574 -81.26171875 72.06640625 C-80.52373047 71.33486328 -79.78574219 70.60332031 -79.02539062 69.84960938 C-78.25388672 69.09486328 -77.48238281 68.34011719 -76.6875 67.5625 C-75.92759766 66.81162109 -75.16769531 66.06074219 -74.38476562 65.28710938 C-72.95761313 63.87731582 -71.52840718 62.4695956 -70.09643555 61.06469727 C-67.71816484 58.72243159 -65.35933167 56.36133771 -63 54 C-61.17228749 52.1831787 -59.34413944 50.36679546 -57.515625 48.55078125 C-55.9603905 47.00290812 -54.40562733 45.45456331 -52.85107422 43.90600586 C-51.77740783 42.83741475 -50.70285263 41.76971598 -49.62744141 40.70288086 C-48.06699267 39.15451577 -46.50975627 37.60298293 -44.953125 36.05078125 C-44.02661133 35.12950439 -43.10009766 34.20822754 -42.14550781 33.2590332 C-39.9755711 31.19420798 -39.9755711 31.19420798 -39 29 C-38.01 29 -37.02 29 -36 29 C-35.835 28.319375 -35.67 27.63875 -35.5 26.9375 C-33.67907793 23.37152762 -31.48013315 21.57244116 -28.42578125 19.04296875 C-24.64950937 15.86263027 -21.10187754 12.43063276 -17.515625 9.0390625 C-15.18336872 7.14863117 -13.92507046 6.36905095 -11 6 C-11 5.34 -11 4.68 -11 4 C-7.12315913 2.80712589 -4.08378077 2 0 2 C0 1.34 0 0.68 0 0 Z " fill="#C0C0C0" transform="translate(162,146)"/>
<path d="M0 0 C3.03700421 2.52505207 3.93712468 5.09454378 5.125 8.8125 C5.62386719 10.33810547 5.62386719 10.33810547 6.1328125 11.89453125 C10.92191828 29.04470734 8.9494281 48.26626544 1 64 C0.54496094 64.98742187 0.08992188 65.97484375 -0.37890625 66.9921875 C-2.10740671 70.19928473 -4.05066299 72.62231151 -6.5 75.3125 C-7.2734375 76.17488281 -8.046875 77.03726563 -8.84375 77.92578125 C-11 80 -11 80 -14 81 C-14.495 82.485 -14.495 82.485 -15 84 C-17.0625 84.6875 -17.0625 84.6875 -19 85 C-19 85.66 -19 86.32 -19 87 C-36.4484055 96.94771899 -54.19235842 99.50047396 -74 95 C-74.99 94.34 -75.98 93.68 -77 93 C-76.33097656 93.0721875 -75.66195312 93.144375 -74.97265625 93.21875 C-53.17054536 95.32579964 -32.60107796 94.90024588 -14.7421875 80.60546875 C-8.68634452 75.02486009 -3.3504684 68.95543151 -1 61 C-0.34 61 0.32 61 1 61 C1.18175781 60.02160156 1.18175781 60.02160156 1.3671875 59.0234375 C1.53476563 58.14945312 1.70234375 57.27546875 1.875 56.375 C2.03742188 55.51648438 2.19984375 54.65796875 2.3671875 53.7734375 C3 51 3 51 4.02075195 48.21044922 C5.67140317 42.79881532 5.32768366 37.36795385 5.3125 31.75 C5.32861328 30.57308594 5.34472656 29.39617187 5.36132812 28.18359375 C5.3653919 20.87693176 4.42407173 14.8648343 2 8 C1.28492689 5.34315705 0.64403869 2.67523763 0 0 Z " fill="#BCBCBC" transform="translate(248,273)"/>
<path d="M0 0 C0.66209473 -0.00095673 1.32418945 -0.00191345 2.00634766 -0.00289917 C3.40852961 -0.00358076 4.8107147 -0.00172792 6.21289062 0.00244141 C8.36595713 0.00779004 10.51881502 0.0024958 12.671875 -0.00390625 C14.03125046 -0.00324546 15.3906258 -0.00196429 16.75 0 C18.61785156 0.00169189 18.61785156 0.00169189 20.5234375 0.00341797 C23.375 0.1328125 23.375 0.1328125 24.375 1.1328125 C26.1635808 1.46356301 27.95330569 1.78921513 29.74804688 2.0847168 C36.60930949 3.2147441 42.34656188 4.49063114 48.375 8.1328125 C44.59245018 9.39366244 43.31600994 8.6161791 39.625 7.2578125 C32.48927951 4.64138165 25.7332919 3.97872932 18.16796875 4 C17.01981438 3.99856491 17.01981438 3.99856491 15.84846497 3.99710083 C14.23743609 3.99642405 12.62640441 3.99824309 11.01538086 4.00244141 C8.57985134 4.00777451 6.14450808 4.00249072 3.70898438 3.99609375 C-2.73847801 3.99097822 -9.19981335 3.9950416 -15.63671875 4.390625 C-16.37752686 4.43590332 -17.11833496 4.48118164 -17.8815918 4.52783203 C-19.81896436 4.99453179 -19.81896436 4.99453179 -20.81176758 7.05419922 C-21.08013428 7.7401416 -21.34850098 8.42608398 -21.625 9.1328125 C-21.955 9.7928125 -22.285 10.4528125 -22.625 11.1328125 C-23.800625 11.0915625 -24.97625 11.0503125 -26.1875 11.0078125 C-30.34909674 10.99297615 -33.68987667 11.82110472 -37.625 13.1328125 C-35.22990662 10.23348893 -33.31254757 9.63112974 -29.625 9.1328125 C-29.625 8.4728125 -29.625 7.8128125 -29.625 7.1328125 C-23.04906873 4.51261551 -16.74950711 2.58935961 -9.7421875 1.52734375 C-1.55349804 0.00140715 -1.55349804 0.00140715 0 0 Z " fill="#9B9B9B" transform="translate(342.625,128.8671875)"/>
<path d="M0 0 C0.66 0.33 1.32 0.66 2 1 C1.00795408 2.33926199 0.00573778 3.67098936 -1 5 C-2.0209375 6.36125 -2.0209375 6.36125 -3.0625 7.75 C-4.0215625 8.86375 -4.0215625 8.86375 -5 10 C-5.66 10 -6.32 10 -7 10 C-7.226875 10.556875 -7.45375 11.11375 -7.6875 11.6875 C-9.37550036 14.66159588 -11.46676517 16.72008865 -14 19 C-14.66 19 -15.32 19 -16 19 C-16.33 19.99 -16.66 20.98 -17 22 C-17.66 22 -18.32 22 -19 22 C-18.67 22.99 -18.34 23.98 -18 25 C-18.969375 25.268125 -19.93875 25.53625 -20.9375 25.8125 C-21.948125 26.204375 -22.95875 26.59625 -24 27 C-24.33 27.99 -24.66 28.98 -25 30 C-27.4375 32.6875 -27.4375 32.6875 -30 35 C-30.66 35 -31.32 35 -32 35 C-32.226875 35.639375 -32.45375 36.27875 -32.6875 36.9375 C-34 39 -34 39 -36.625 39.75 C-37.40875 39.8325 -38.1925 39.915 -39 40 C-38.34 38.68 -37.68 37.36 -37 36 C-36.34 36 -35.68 36 -35 36 C-34.67 35.01 -34.34 34.02 -34 33 C-33.34 33 -32.68 33 -32 33 C-31.34 31.68 -30.68 30.36 -30 29 C-29.34 29 -28.68 29 -28 29 C-27.731875 28.401875 -27.46375 27.80375 -27.1875 27.1875 C-26.00082594 25.00152146 -24.90400887 23.58667406 -23 22 C-22.34 22 -21.68 22 -21 22 C-20.34 20.68 -19.68 19.36 -19 18 C-18.34 18 -17.68 18 -17 18 C-16.67 17.01 -16.34 16.02 -16 15 C-14.0625 12.8125 -14.0625 12.8125 -12 11 C-11.34 11 -10.68 11 -10 11 C-9.34 9.68 -8.68 8.36 -8 7 C-7.34 7 -6.68 7 -6 7 C-5.67 6.01 -5.34 5.02 -5 4 C-4.34 4 -3.68 4 -3 4 C-3 3.34 -3 2.68 -3 2 C-2.01 1.34 -1.02 0.68 0 0 Z " fill="#818181" transform="translate(122,131)"/>
<path d="M0 0 C6.71549376 4.28163602 12.552911 9.01227799 17.5 15.2734375 C18.9887751 17.11591967 18.9887751 17.11591967 21.1875 18.6015625 C21.785625 19.06304687 22.38375 19.52453125 23 20 C23 20.66 23 21.32 23 22 C18.82199252 20.37688918 16.10108108 17.28876606 13.0625 14.125 C8.46546224 9.37183643 4.00651008 4.77942534 -2 1.8125 C-2.639375 1.48894531 -3.27875 1.16539062 -3.9375 0.83203125 C-9.62735449 -1.46330778 -15.5324695 -1.18337267 -21.5625 -1.1875 C-22.50802734 -1.19974609 -23.45355469 -1.21199219 -24.42773438 -1.22460938 C-25.33974609 -1.22654297 -26.25175781 -1.22847656 -27.19140625 -1.23046875 C-28.01842041 -1.23457764 -28.84543457 -1.23868652 -29.69750977 -1.24291992 C-32.23676525 -0.97502053 -33.77608093 -0.21718116 -36 1 C-38.32548007 1.69356423 -40.65880445 2.36149212 -43 3 C-43.99 3.33 -44.98 3.66 -46 4 C-46 3.34 -46 2.68 -46 2 C-44.65144233 1.19881608 -43.29578257 0.40958392 -41.9375 -0.375 C-40.80634766 -1.03628906 -40.80634766 -1.03628906 -39.65234375 -1.7109375 C-27.18649991 -7.76944776 -11.95037479 -6.54606517 0 0 Z " fill="#AAAAAA" transform="translate(374,185)"/>
<path d="M0 0 C1.49466797 0.24169922 1.49466797 0.24169922 3.01953125 0.48828125 C7.150262 1.00951197 11.22496374 1.07785916 15.38671875 1.10546875 C16.75065463 1.12011264 18.11458693 1.13509276 19.47851562 1.15039062 C21.59208997 1.17329733 23.70394272 1.18740389 25.81762695 1.17504883 C37.66490843 1.12442527 37.66490843 1.12442527 40.98754883 3.3034668 C42.3125 4.8984375 42.3125 4.8984375 44 8 C45.6222454 9.70993434 47.29413425 11.37347684 49 13 C49.63292969 13.60457031 50.26585937 14.20914062 50.91796875 14.83203125 C51.60503906 15.46496094 52.29210937 16.09789062 53 16.75 C53.639375 17.34296875 54.27875 17.9359375 54.9375 18.546875 C57.29875288 20.21048499 59.19216278 20.48775943 62 21 C62.66666667 22.33333333 63.33333333 23.66666667 64 25 C66.55519921 25.81171228 66.55519921 25.81171228 69 26 C68.67 26.66 68.34 27.32 68 28 C68.89163577 30.11683841 68.89163577 30.11683841 70 32 C68.68 31.67 67.36 31.34 66 31 C66 30.34 66 29.68 66 29 C65.41734375 28.72414063 64.8346875 28.44828125 64.234375 28.1640625 C58.45915126 25.15529209 53.76468603 21.04051733 49.69921875 15.98046875 C43.18232136 7.84531882 43.18232136 7.84531882 34.11962891 3.30517578 C27.93151092 2.76070017 21.83290522 3.26531216 15.66162109 3.828125 C10.72228431 4.14708419 5.70552376 3.58481258 1 2 C0.67 1.34 0.34 0.68 0 0 Z " fill="#CBCBCB" transform="translate(83,325)"/>
<path d="M0 0 C1.43496826 0.00193359 1.43496826 0.00193359 2.89892578 0.00390625 C10.68381101 0.10870026 17.80697298 1.16074481 25.3125 3.3125 C25.3125 3.9725 25.3125 4.6325 25.3125 5.3125 C26.9625 5.6425 28.6125 5.9725 30.3125 6.3125 C30.3125 6.9725 30.3125 7.6325 30.3125 8.3125 C31.6325 8.6425 32.9525 8.9725 34.3125 9.3125 C31.3125 10.3125 31.3125 10.3125 28.81640625 9.16796875 C27.84574219 8.61753906 26.87507813 8.06710938 25.875 7.5 C12.85150908 0.75345603 -2.1853509 0.88089576 -16.2578125 4.203125 C-25.00881722 7.03374612 -31.90921024 12.27098087 -38.6875 18.3125 C-39.3475 18.3125 -40.0075 18.3125 -40.6875 18.3125 C-40.914375 18.869375 -41.14125 19.42625 -41.375 20 C-43.04646766 22.94496684 -45.24026352 24.99406544 -47.6875 27.3125 C-45.06771021 19.21496792 -38.64391995 13.82981743 -31.6875 9.3125 C-29.41015625 8.61328125 -29.41015625 8.61328125 -27.6875 8.3125 C-27.6875 7.6525 -27.6875 6.9925 -27.6875 6.3125 C-18.56355216 1.33580118 -10.3560614 -0.05816991 0 0 Z " fill="#EEEEEE" transform="translate(350.6875,161.6875)"/>
<path d="M0 0 C0.66 0 1.32 0 2 0 C0.70384412 5.06679119 -1.15740903 7.50673548 -5 11 C-6.0024134 12.03934442 -7.00235757 13.08107519 -8 14.125 C-9.77841073 15.91243819 -11.17110894 17.09906307 -13.375 18.375 C-19.45507699 22.13885719 -24.28635975 27.36665718 -27 34 C-27.66666667 35.33333333 -28.33333333 36.66666667 -29 38 C-30.32 38 -31.64 38 -33 38 C-34.07525194 40.65228812 -35.09456151 43.28368454 -36 46 C-36.66 46 -37.32 46 -38 46 C-37.70283717 41.24539471 -35.3204639 38.46368168 -32.47265625 34.8671875 C-31.23844119 33.30232066 -30.1055239 31.65828585 -29 30 C-28.34 30 -27.68 30 -27 30 C-26.773125 29.443125 -26.54625 28.88625 -26.3125 28.3125 C-24.63283282 25.35308639 -22.43248148 23.37591214 -20 21 C-18.32932867 19.00334402 -16.66247014 17.00348966 -15 15 C-12.8125 12.625 -12.8125 12.625 -11 11 C-10.34 11 -9.68 11 -9 11 C-8.34 9.68 -7.68 8.36 -7 7 C-6.34 7 -5.68 7 -5 7 C-4.67 6.01 -4.34 5.02 -4 4 C-3.34 4 -2.68 4 -2 4 C-1.34 2.68 -0.68 1.36 0 0 Z " fill="#ACACAC" transform="translate(81,171)"/>
<path d="M0 0 C0.66 0.33 1.32 0.66 2 1 C-0.21479661 4.04534534 -2.5603752 6.5492247 -5.4296875 8.95703125 C-11.11979518 13.88126232 -16.34359179 19.27254146 -21.625 24.625 C-23.63501075 26.66186204 -25.64849786 28.69519775 -27.6640625 30.7265625 C-28.98591553 32.06581787 -28.98591553 32.06581787 -30.33447266 33.43212891 C-32.28311459 35.30937894 -34.17204388 36.94806164 -36.28588867 38.609375 C-39.32347531 40.8079211 -39.32347531 40.8079211 -39.76171875 44.5234375 C-39.57839832 54.79969439 -39.57839832 54.79969439 -34 63 C-34.99 63 -35.98 63 -37 63 C-39.90322818 59.35022743 -41 57.74147821 -41 53 C-41.66 53 -42.32 53 -43 53 C-43.93844144 48.21394867 -44.24310553 45.35745274 -42 41 C-40.01171875 38.9375 -40.01171875 38.9375 -37.6875 37 C-34.28563345 34.13527027 -31.12107618 31.1700517 -28 28 C-26.65719561 26.65530506 -25.31334986 25.3116496 -23.96875 23.96875 C-23.24042969 23.24042969 -22.51210937 22.51210937 -21.76171875 21.76171875 C-14.5078125 14.5078125 -7.25390625 7.25390625 0 0 Z " fill="#C7C7C7" transform="translate(182,229)"/>
<path d="M0 0 C0.66 0.33 1.32 0.66 2 1 C1.0479279 2.00596297 0.08812654 3.00461563 -0.875 4 C-1.40867188 4.556875 -1.94234375 5.11375 -2.4921875 5.6875 C-4 7 -4 7 -6 7 C-6.05285156 7.56847656 -6.10570312 8.13695312 -6.16015625 8.72265625 C-7.71511273 12.93911964 -11.93785556 15.06292953 -15.43359375 17.68359375 C-18.07004676 20.06322333 -19.00968114 21.63765993 -20 25 C-19.01 25.33 -18.02 25.66 -17 26 C-15.24609375 27.70703125 -15.24609375 27.70703125 -13.4375 29.8125 C-12.83808594 30.49957031 -12.23867187 31.18664062 -11.62109375 31.89453125 C-10 34 -10 34 -8.91015625 36.19921875 C-8.13267598 38.18221668 -8.13267598 38.18221668 -6 39 C-6 39.99 -6 40.98 -6 42 C-5.34 42 -4.68 42 -4 42 C-1.36462882 49.90611355 -1.82018899 57.76865163 -2 66 C-2.66 66 -3.32 66 -4 66 C-3.97679687 65.28714844 -3.95359375 64.57429688 -3.9296875 63.83984375 C-3.76806288 55.26219424 -5.46128921 48.83884595 -9.09765625 41.11328125 C-10 39 -10 39 -10.43359375 36.79296875 C-10.62050781 36.20128906 -10.80742187 35.60960937 -11 35 C-11.99 34.67 -12.98 34.34 -14 34 C-16.078125 31.85546875 -16.078125 31.85546875 -18.25 29.1875 C-18.97703125 28.31480469 -19.7040625 27.44210937 -20.453125 26.54296875 C-22 24 -22 24 -21.90625 21.82421875 C-20.67879776 19.35344205 -18.75636081 18.01803244 -16.609375 16.3515625 C-14.72582761 14.85051745 -14.72582761 14.85051745 -12.5 12 C-9.85580794 8.82696953 -7.20354496 6.59010018 -4 4 C-2.64900897 2.68456137 -1.30794331 1.35824882 0 0 Z " fill="#D9D9D9" transform="translate(225,247)"/>
<path d="M0 0 C1.29233265 2.58466529 0.78980419 3.53034001 0.125 6.3125 C-3.62657534 23.95504351 -2.10660636 42.24431784 0 60 C0.66 60 1.32 60 2 60 C2.66 63.3 3.32 66.6 4 70 C0.62463814 68.31231907 0.23816118 64.76651825 -0.92919922 61.33398438 C-4.13513677 51.35215967 -5.48343837 41.97032677 -5.375 31.5 C-5.38660156 30.37980469 -5.39820313 29.25960937 -5.41015625 28.10546875 C-5.37625068 18.30676018 -3.83138933 9.05563316 0 0 Z " fill="#B4B4B4" transform="translate(264,191)"/>
<path d="M0 0 C0.99 0.495 0.99 0.495 2 1 C-10.54407104 8.90892334 -23.54272307 11.17886121 -38.125 11.1875 C-39.18976563 11.19974609 -40.25453125 11.21199219 -41.3515625 11.22460938 C-48.6264716 11.23785253 -55.94810053 10.94537773 -63 9 C-63.33 8.34 -63.66 7.68 -64 7 C-62.18757948 6.97312721 -60.37504767 6.95366285 -58.5625 6.9375 C-57.55316406 6.92589844 -56.54382813 6.91429687 -55.50390625 6.90234375 C-53 7 -53 7 -52 8 C-47.46435593 8.25609302 -42.91700304 8.1852403 -38.375 8.1875 C-36.46654297 8.20586914 -36.46654297 8.20586914 -34.51953125 8.22460938 C-28.27916286 8.23437012 -22.86940718 8.1715233 -17 6 C-15.700625 5.63068359 -15.700625 5.63068359 -14.375 5.25390625 C-10.46771365 4.11642322 -6.70625132 2.94097717 -3 1.25 C-2.01 0.8375 -1.02 0.425 0 0 Z " fill="#D4D4D4" transform="translate(433,351)"/>
<path d="M0 0 C1.32 0.66 2.64 1.32 4 2 C4 2.66 4 3.32 4 4 C4.99 4.33 5.98 4.66 7 5 C9.1875 6.9375 9.1875 6.9375 11 9 C11 9.66 11 10.32 11 11 C11.99 11.33 12.98 11.66 14 12 C15.82421875 13.7421875 15.82421875 13.7421875 17.6875 15.875 C18.31011719 16.57367188 18.93273437 17.27234375 19.57421875 17.9921875 C21 20 21 20 21 23 C19.125 25.1875 19.125 25.1875 17 27 C16.34 27 15.68 27 15 27 C14.7525 27.5775 14.505 28.155 14.25 28.75 C12.81700012 31.32939979 11.21575324 33.06121592 9 35 C8.34 35 7.68 35 7 35 C6.67 35.99 6.34 36.98 6 38 C4.51171875 39.60546875 4.51171875 39.60546875 2.6875 41.1875 C2.09324219 41.71730469 1.49898438 42.24710938 0.88671875 42.79296875 C-1 44 -1 44 -5 44 C-7.25 41.5 -7.25 41.5 -9 39 C-5.48283697 39 -4.62878252 39.82445585 -2 42 C-0.62714844 40.59234375 -0.62714844 40.59234375 0.7734375 39.15625 C1.97369391 37.93723959 3.17422919 36.71850371 4.375 35.5 C5.27992188 34.56994141 5.27992188 34.56994141 6.203125 33.62109375 C7.07324219 32.74130859 7.07324219 32.74130859 7.9609375 31.84375 C8.49509277 31.29912109 9.02924805 30.75449219 9.57958984 30.19335938 C11 29 11 29 13 29 C13.28875 28.38125 13.5775 27.7625 13.875 27.125 C15 25 15 25 17 23 C16.98333671 20.49675668 16.98333671 20.49675668 16 18 C14.00334686 16.31461399 14.00334686 16.31461399 12 15 C12 14.34 12 13.68 12 13 C11.34 13 10.68 13 10 13 C7.375 10.625 7.375 10.625 5 8 C5 7.34 5 6.68 5 6 C4.34 6 3.68 6 3 6 C1.515 3.03 1.515 3.03 0 0 Z " fill="#C8C8C8" transform="translate(433,171)"/>
<path d="M0 0 C0 0.33 0 0.66 0 1 C-1.03898437 1.09796875 -2.07796875 1.1959375 -3.1484375 1.296875 C-15.3304478 2.5535517 -26.15596091 4.7721959 -35 14 C-38.89334346 20.03050097 -41.14147353 25.7983409 -41.09765625 32.984375 C-41.09443359 33.91894531 -41.09121094 34.85351562 -41.08789062 35.81640625 C-41.07951172 36.78449219 -41.07113281 37.75257813 -41.0625 38.75 C-41.05798828 39.73355469 -41.05347656 40.71710938 -41.04882812 41.73046875 C-41.03706483 44.15370791 -41.02062684 46.57682273 -41 49 C-44.58226933 45.41773067 -44.07527208 39.91822807 -44.1875 35.0625 C-44.06617478 26.15183696 -41.53676836 17.9902002 -35.5625 11.25 C-34.716875 10.5075 -33.87125 9.765 -33 9 C-32.175 8.2575 -31.35 7.515 -30.5 6.75 C-27.90251084 4.93175759 -26.1198881 4.35655864 -23 4 C-23 3.34 -23 2.68 -23 2 C-15.27111181 0.04596958 -7.94957992 -0.22428282 0 0 Z " fill="#D2D2D2" transform="translate(169,228)"/>
<path d="M0 0 C1.44084023 2.88168047 0.65609211 5.31709302 0.27099609 8.41894531 C-1.53030839 25.57515346 0.01236566 40.11612851 8.125 55.30078125 C9.78185002 58.44243633 10.9843784 61.58814618 12 65 C11.34 65 10.68 65 10 65 C-1.42115574 44.45855242 -6.92344469 24.52083149 -1 1 C-0.67 0.67 -0.34 0.34 0 0 Z " fill="#C8C8C8" transform="translate(35,234)"/>
<path d="M0 0 C0.66 0 1.32 0 2 0 C2.391875 0.86625 2.78375 1.7325 3.1875 2.625 C5.10893345 6.2028416 7.33500811 8.94500929 10 12 C10.66 12.845625 11.32 13.69125 12 14.5625 C15.4269432 18.73908702 19.30721159 22.27649378 23.375 25.8125 C26.95303046 28.96541793 30.08642021 32.26448674 33.16015625 35.90234375 C36.5731074 39.79354283 40.30422028 43.37964436 44 47 C43.505 47.99 43.505 47.99 43 49 C38.75355275 45.64234403 35.43071316 42.2224162 32 38 C29.71204984 35.6610175 27.38187144 33.37203356 25.03833008 31.08886719 C1.5071668 8.14986494 1.5071668 8.14986494 0 0 Z " fill="#D9D9D9" transform="translate(272,269)"/>
<path d="M0 0 C0.66 0 1.32 0 2 0 C0.65582335 4.36857413 -1.05533151 8.43376957 -3 12.55859375 C-5.86340906 19.54933853 -6.38416977 25.67318292 -6.375 33.1875 C-6.37701416 34.2074707 -6.37902832 35.22744141 -6.38110352 36.27832031 C-6.28894725 43.11642426 -5.54404808 48.59334512 -2.77734375 54.890625 C-2 57 -2 57 -3 60 C-4.4606285 57.35261084 -5 56.10551666 -5 53 C-5.66 53 -6.32 53 -7 53 C-9.74908945 39.8190979 -9.74908945 27.1809021 -7 14 C-6.34 14 -5.68 14 -5 14 C-4.855625 12.906875 -4.71125 11.81375 -4.5625 10.6875 C-4 7 -4 7 -3 4 C-2.34 3.67 -1.68 3.34 -1 3 C-0.67 2.01 -0.34 1.02 0 0 Z " fill="#DBDBDB" transform="translate(301,189)"/>
<path d="M0 0 C3.36179774 1.44077046 5.59156268 3.24750021 8 6 C8 6.66 8 7.32 8 8 C8.99 8.33 9.98 8.66 11 9 C11.625 11.3125 11.625 11.3125 12 14 C11.01 15.485 11.01 15.485 10 17 C9.34 17 8.68 17 8 17 C7.34 18.32 6.68 19.64 6 21 C5.34 21 4.68 21 4 21 C4 21.66 4 22.32 4 23 C2.42578125 24.55078125 2.42578125 24.55078125 0.3125 26.3125 C-2.21965467 28.44343298 -4.44399818 30.48530033 -6.6875 32.9375 C-9 35 -9 35 -11.5 35.6875 C-15.36377047 34.62496312 -16.66875304 32.19713869 -19 29 C-18.34 28.67 -17.68 28.34 -17 28 C-15.62437146 29.28965176 -14.29233607 30.62689293 -13 32 C-13 32.66 -13 33.32 -13 34 C-8.55451449 31.84461308 -6.01860459 28.83214625 -2.90625 25.1328125 C-0.37990092 22.30620062 2.40870699 19.88851865 5.30078125 17.4453125 C7.09618266 15.95747294 7.09618266 15.95747294 9 14 C8.75038926 10.15116338 6.66357266 8.40394924 3.9375 5.875 C2.59001493 4.61987331 1.26847218 3.33492972 0 2 C0 1.34 0 0.68 0 0 Z " fill="#D2D2D2" transform="translate(404,214)"/>
<path d="M0 0 C4 4.625 4 4.625 4 8 C4.66 8 5.32 8 6 8 C8.125 9.875 8.125 9.875 10 12 C10 12.66 10 13.32 10 14 C10.66 14.2475 11.32 14.495 12 14.75 C14.42222857 15.7592619 16.67792339 16.8530851 19 18.0625 C21.98662055 19.58409267 24.64024934 20.58003117 28 21 C28.33 20.01 28.66 19.02 29 18 C29.66 19.98 30.32 21.96 31 24 C29.72125 23.855625 28.4425 23.71125 27.125 23.5625 C22.08719116 23.00185355 17.04463121 22.49498469 12 22 C12.10828125 20.86111328 12.10828125 20.86111328 12.21875 19.69921875 C12.26799023 16.95415684 12.26799023 16.95415684 10.46875 15.26953125 C9.8190625 14.78871094 9.169375 14.30789063 8.5 13.8125 C7.30380519 12.91298049 6.12920844 11.98229612 5 11 C5 10.34 5 9.68 5 9 C4.34 9 3.68 9 3 9 C0 3.375 0 3.375 0 0 Z " fill="#A2A2A2" transform="translate(70,273)"/>
<path d="M0 0 C5.32657778 5.32657778 3.30661581 16.7015849 3.3190918 23.69506836 C3.23085932 32.19327891 2.64420394 39.22259351 -1 47 C-1.45503906 47.98484375 -1.91007813 48.9696875 -2.37890625 49.984375 C-3.53036446 52.3594626 -4.72685635 54.68851378 -6 57 C-7.25541557 53.23375329 -6.37061958 51.62811066 -5 48 C-4.34 48 -3.68 48 -3 48 C-2.34 44.04 -1.68 40.08 -1 36 C-0.34 36 0.32 36 1 36 C1.19418704 17.97391961 1.19418704 17.97391961 0 0 Z " fill="#CECECE" transform="translate(241,166)"/>
<path d="M0 0 C2.71224618 1.61268692 5.37352812 3.24901874 8 5 C8 5.66 8 6.32 8 7 C8.721875 7.27714844 9.44375 7.55429687 10.1875 7.83984375 C13.74490301 9.30727249 17.09727016 11.08715632 20.5 12.87890625 C26.75534447 15.68403729 34.26764746 16.19206239 40.80078125 14.10546875 C42.5370602 13.39437332 44.26141404 12.65302651 45.96875 11.875 C48 11 48 11 50 11 C50 11.66 50 12.32 50 13 C42.36468546 18.4537961 32.03924689 17.9309831 23.0859375 16.55078125 C21.043008 16.09355417 19.01808983 15.55671444 17 15 C17 14.34 17 13.68 17 13 C16.16662109 12.85691406 16.16662109 12.85691406 15.31640625 12.7109375 C12.41667005 11.82096787 10.40221502 10.38710395 7.9375 8.625 C7.08027344 8.01914062 6.22304687 7.41328125 5.33984375 6.7890625 C3.37037155 5.28318893 1.60591041 3.88497025 0 2 C0 1.34 0 0.68 0 0 Z " fill="#BCBCBC" transform="translate(160,320)"/>
<path d="M0 0 C0.66 0.33 1.32 0.66 2 1 C1.00795408 2.33926199 0.00573778 3.67098936 -1 5 C-2.0209375 6.36125 -2.0209375 6.36125 -3.0625 7.75 C-3.701875 8.4925 -4.34125 9.235 -5 10 C-5.66 10 -6.32 10 -7 10 C-7.226875 10.556875 -7.45375 11.11375 -7.6875 11.6875 C-9.37550036 14.66159588 -11.46676517 16.72008865 -14 19 C-14.66 19 -15.32 19 -16 19 C-16.33 19.99 -16.66 20.98 -17 22 C-17.66 21.67 -18.32 21.34 -19 21 C-17.1627685 16.95809069 -15.42607122 13.87347909 -12 11 C-11.34 11 -10.68 11 -10 11 C-9.34 9.68 -8.68 8.36 -8 7 C-7.34 7 -6.68 7 -6 7 C-5.67 6.01 -5.34 5.02 -5 4 C-4.34 4 -3.68 4 -3 4 C-3 3.34 -3 2.68 -3 2 C-2.01 1.34 -1.02 0.68 0 0 Z " fill="#454545" transform="translate(122,131)"/>
<path d="M0 0 C-2.19811609 2.19811609 -3.47230619 2.59023848 -6.375 3.5625 C-12.16680604 5.77131104 -16.63841155 9.25432784 -21.43359375 13.07421875 C-24 15 -24 15 -27 16 C-27.433125 16.86625 -27.433125 16.86625 -27.875 17.75 C-29.38015001 20.76030003 -31.57377963 22.70147544 -34 25 C-31.38021021 16.90246792 -24.95641995 11.51731743 -18 7 C-15.72265625 6.30078125 -15.72265625 6.30078125 -14 6 C-14 5.34 -14 4.68 -14 4 C-12.75264433 3.3490741 -11.50198168 2.70448331 -10.25 2.0625 C-9.55390625 1.70285156 -8.8578125 1.34320313 -8.140625 0.97265625 C-2.85659656 -1.42829828 -2.85659656 -1.42829828 0 0 Z " fill="#C7C7C7" transform="translate(337,164)"/>
<path d="M0 0 C0.99 0.33 1.98 0.66 3 1 C2.03900391 1.8353125 2.03900391 1.8353125 1.05859375 2.6875 C-8.10656018 10.77359706 -14.43393857 17.55919439 -19 29 C-19.37511719 29.93457031 -19.75023438 30.86914062 -20.13671875 31.83203125 C-20.56404297 32.90517578 -20.56404297 32.90517578 -21 34 C-22.03311995 30.8587569 -21.99963588 29.1755817 -20.75 26.125 C-20.47027344 25.43664062 -20.19054687 24.74828125 -19.90234375 24.0390625 C-18.69430206 21.30920205 -17.38747945 18.642818 -16 16 C-15.34 16 -14.68 16 -14 16 C-13.79632813 15.46890625 -13.59265625 14.9378125 -13.3828125 14.390625 C-11.40494391 10.97125896 -8.69673101 8.48662079 -5.875 5.75 C-5.31167969 5.19570312 -4.74835938 4.64140625 -4.16796875 4.0703125 C-2.78313972 2.70895515 -1.39216796 1.35385141 0 0 Z " fill="#C4C4C4" transform="translate(89,210)"/>
<path d="M0 0 C1.15477893 3.46433679 0.80148365 4.68112799 -0.1875 8.125 C-0.54908203 9.45917969 -0.54908203 9.45917969 -0.91796875 10.8203125 C-1.27503906 11.53960937 -1.63210937 12.25890625 -2 13 C-3.32381801 13.36931662 -4.65811443 13.70296125 -6 14 C-6.68181407 15.32565146 -7.34634151 16.66024152 -8 18 C-9.37280273 19.59985352 -9.37280273 19.59985352 -10.93359375 21.12890625 C-11.50013672 21.68900391 -12.06667969 22.24910156 -12.65039062 22.82617188 C-13.24013672 23.39916016 -13.82988281 23.97214844 -14.4375 24.5625 C-15.02337891 25.13935547 -15.60925781 25.71621094 -16.21289062 26.31054688 C-17.30557787 27.38587019 -18.40031484 28.45911775 -19.49780273 29.52954102 C-21.00933477 31.00913755 -22.50687053 32.50185535 -24 34 C-24 31 -24 31 -22.62646484 29.34936523 C-21.99434082 28.75841064 -21.3622168 28.16745605 -20.7109375 27.55859375 C-20.01887207 26.89706299 -19.32680664 26.23553223 -18.61376953 25.55395508 C-17.87497559 24.8555249 -17.13618164 24.15709473 -16.375 23.4375 C-8.98706789 16.26667011 -3.74910952 9.64297989 0 0 Z " fill="#CACACA" transform="translate(209,195)"/>
<path d="M0 0 C3.87732439 3.85560269 4.01760499 8.6427079 4.6875 13.8125 C4.87856323 15.20698364 4.87856323 15.20698364 5.07348633 16.62963867 C6.07795469 24.46395293 6.32718899 32.11110989 6 40 C3.49946224 37.49946224 3.72972134 36.62460515 3.65625 33.16796875 C3.62660156 32.20439453 3.59695312 31.24082031 3.56640625 30.24804688 C3.53353516 28.73307617 3.53353516 28.73307617 3.5 27.1875 C3.4564106 25.2016183 3.40459589 23.21589665 3.34375 21.23046875 C3.32505859 20.34770264 3.30636719 19.46493652 3.28710938 18.55541992 C2.96815164 15.71653331 2.26267735 13.55803904 1 11 C0.34 10.67 -0.32 10.34 -1 10 C-0.67 9.34 -0.34 8.68 0 8 C0.66 8.33 1.32 8.66 2 9 C1.67 8.2575 1.34 7.515 1 6.75 C0 4 0 4 0 0 Z " fill="#6B6B6B" transform="translate(237,154)"/>
<path d="M0 0 C9.04010805 0.20089129 16.33524803 6.34968655 23 12 C24.22174871 13.32334943 25.41183563 14.6768972 26.5625 16.0625 C28.36235279 18.22814273 29.93647825 19.95350701 32.21484375 21.62109375 C32.80394531 22.07613281 33.39304687 22.53117187 34 23 C34 23.66 34 24.32 34 25 C29.82199252 23.37688918 27.10108108 20.28876606 24.0625 17.125 C17.26461473 10.09624316 10.13518327 3.26689791 0 2 C0 1.34 0 0.68 0 0 Z " fill="#E1E1E1" transform="translate(363,182)"/>
<path d="M0 0 C12.17685458 0.55349339 23.61675362 9.15587916 32.3125 17.1171875 C34 19 34 19 34 21 C31.04196519 19.6512925 28.79203633 18.10431451 26.375 15.9375 C24.5818742 14.33621517 23.15343684 13.07671842 21 12 C21 11.34 21 10.68 21 10 C20.30003906 9.72285156 19.60007813 9.44570312 18.87890625 9.16015625 C14.84328756 7.53386215 10.8441557 5.82280009 6.83984375 4.12109375 C4.54850203 3.21653381 2.4017454 2.51260274 0 2 C0 1.34 0 0.68 0 0 Z " fill="#D0D0D0" transform="translate(192,117)"/>
<path d="M0 0 C2.08566153 3.12849229 3.01472127 5.81263456 4.1875 9.375 C6.42626363 15.82317548 9.26052262 21.53652143 12.64453125 27.453125 C14 30 14 30 14 32 C13.34 32 12.68 32 12 32 C-0.94288225 8.72166081 -0.94288225 8.72166081 0 0 Z " fill="#D9D9D9" transform="translate(33,267)"/>
<path d="M0 0 C4.50842555 1.37757447 6.24313881 3.24064383 9 7 C9.98463079 8.26214191 10.98549441 9.5117438 12 10.75 C12.474375 11.34296875 12.94875 11.9359375 13.4375 12.546875 C15.25257165 14.23489163 16.58255856 14.60403976 19 15 C19.66 17.31 20.32 19.62 21 22 C20.01 21.67 19.02 21.34 18 21 C18 20.34 18 19.68 18 19 C17.40832031 18.75765625 16.81664062 18.5153125 16.20703125 18.265625 C13.58957361 16.76464044 12.43253638 15.19888161 10.6875 12.75 C8.3609716 9.62278325 6.07759645 7.03439082 3.0625 4.5625 C2.051875 3.716875 1.04125 2.87125 0 2 C0 1.34 0 0.68 0 0 Z " fill="#C2C2C2" transform="translate(403,187)"/>
<path d="M0 0 C0.66 0 1.32 0 2 0 C0.70384412 5.06679119 -1.15740903 7.50673548 -5 11 C-6.10937491 12.09893374 -7.21354158 13.20314954 -8.3125 14.3125 C-9.199375 15.199375 -10.08625 16.08625 -11 17 C-11.66 16.67 -12.32 16.34 -13 16 C-12.54625 15.608125 -12.0925 15.21625 -11.625 14.8125 C-9.83190763 13.03055035 -9.83190763 13.03055035 -9 10.375 C-8.67 9.59125 -8.34 8.8075 -8 8 C-7.01 7.67 -6.02 7.34 -5 7 C-4.67 6.01 -4.34 5.02 -4 4 C-3.34 4 -2.68 4 -2 4 C-1.34 2.68 -0.68 1.36 0 0 Z " fill="#8B8B8B" transform="translate(81,171)"/>
<path d="M0 0 C0.99 0.33 1.98 0.66 3 1 C2.24074219 1.68707031 1.48148438 2.37414062 0.69921875 3.08203125 C-0.30472383 3.99214742 -1.30862807 4.9023059 -2.3125 5.8125 C-2.81201172 6.26431641 -3.31152344 6.71613281 -3.82617188 7.18164062 C-6.27364776 9.40219821 -8.69450785 11.63155925 -11 14 C-14.82352106 12.4422692 -17.29205593 10.08404742 -20 7 C-20 6.01 -20 5.02 -20 4 C-19.34 4.33 -18.68 4.66 -18 5 C-18 5.66 -18 6.32 -18 7 C-17.01 7.33 -16.02 7.66 -15 8 C-14.01 9.485 -14.01 9.485 -13 11 C-12.01 11.33 -11.02 11.66 -10 12 C-9.90589844 11.40703125 -9.81179687 10.8140625 -9.71484375 10.203125 C-8.84054781 7.50857359 -7.73279682 6.53677244 -5.5625 4.75 C-4.94503906 4.22921875 -4.32757813 3.7084375 -3.69140625 3.171875 C-2 2 -2 2 0 2 C0 1.34 0 0.68 0 0 Z " fill="#D0D0D0" transform="translate(169,289)"/>
<path d="M0 0 C0.66 0.33 1.32 0.66 2 1 C-2.90224394 6.76209966 -8.05742538 12.18391529 -13.4375 17.5 C-14.53481445 18.59054687 -14.53481445 18.59054687 -15.65429688 19.703125 C-17.43389824 21.47109499 -19.21580918 23.23666378 -21 25 C-21.66 24.67 -22.32 24.34 -23 24 C-22.26394531 23.27554687 -21.52789062 22.55109375 -20.76953125 21.8046875 C-14.70488434 15.90720304 -14.70488434 15.90720304 -9.125 9.5625 C-6.9640789 6.95668337 -4.65494703 5.08090443 -2 3 C-1.34 2.01 -0.68 1.02 0 0 Z " fill="#D6D6D6" transform="translate(217,241)"/>
<path d="M0 0 C1.81242052 -0.02687279 3.62495233 -0.04633715 5.4375 -0.0625 C6.44683594 -0.07410156 7.45617187 -0.08570313 8.49609375 -0.09765625 C11 0 11 0 12 1 C13.77869726 1.15764405 15.56318476 1.25100677 17.34765625 1.31640625 C18.42724609 1.35830078 19.50683594 1.40019531 20.61914062 1.44335938 C22.32360352 1.50233398 22.32360352 1.50233398 24.0625 1.5625 C25.20267578 1.60568359 26.34285156 1.64886719 27.51757812 1.69335938 C30.34492195 1.79982839 33.17235738 1.90184207 36 2 C36 2.33 36 2.66 36 3 C31.83741853 3.04969106 27.67499739 3.08585642 23.51220703 3.10986328 C22.09811391 3.11987856 20.68404127 3.13349474 19.27001953 3.15087891 C17.22944054 3.17532559 15.18913697 3.18652784 13.1484375 3.1953125 C11.92302246 3.20578613 10.69760742 3.21625977 9.43505859 3.22705078 C5.96166703 2.99746626 3.23393024 2.2511457 0 1 C0 0.67 0 0.34 0 0 Z " fill="#8F8F8F" transform="translate(369,358)"/>
<path d="M0 0 C2.20850653 2.53978251 3.45735459 5.03596819 4.6875 8.125 C7.11760644 13.85242732 10.97234974 18.31736778 15 23 C14.67 23.66 14.34 24.32 14 25 C8.22079247 21.88684523 6.21079387 18.42619685 3.625 12.5 C3.27050781 11.74074219 2.91601562 10.98148437 2.55078125 10.19921875 C0.83034638 6.4062909 0 4.28055076 0 0 Z " fill="#B7B7B7" transform="translate(128,277)"/>
<path d="M0 0 C0.66 0 1.32 0 2 0 C-0.52481978 6.79759171 -3.44904517 10.51199397 -9 15 C-9.99 16.485 -9.99 16.485 -11 18 C-11.66 17.67 -12.32 17.34 -13 17 C-11.69791667 15.56770833 -10.39583333 14.13541667 -9.09375 12.703125 C-7.63975508 10.77639485 -7.63975508 10.77639485 -8 7 C-7.34 7 -6.68 7 -6 7 C-5.67 6.34 -5.34 5.68 -5 5 C-2.9375 4.375 -2.9375 4.375 -1 4 C-0.67 2.68 -0.34 1.36 0 0 Z " fill="#A6A6A6" transform="translate(232,223)"/>
<path d="M0 0 C0.33 0.99 0.66 1.98 1 3 C1.66 3 2.32 3 3 3 C5.63537118 10.90611355 5.17981101 18.76865163 5 27 C4.34 27 3.68 27 3 27 C3.03480469 25.93072266 3.03480469 25.93072266 3.0703125 24.83984375 C3.17849803 19.09828318 2.73592963 14.51412941 1 9 C0.56161462 6.00838109 0.25953708 3.01199609 0 0 Z " fill="#C7C7C7" transform="translate(218,286)"/>
<path d="M0 0 C3.99421201 2.90488146 7.03458038 6.23210729 10.21875 9.9609375 C12.68369753 12.78265375 15.31884445 15.38423849 18 18 C17.67 18.66 17.34 19.32 17 20 C12.75355275 16.64234403 9.43071316 13.2224162 6 9 C5.0925 8.13375 4.185 7.2675 3.25 6.375 C1.09280168 4.09795733 0.33917366 3.05256297 0 0 Z " fill="#D2D2D2" transform="translate(298,298)"/>
<path d="M0 0 C0.66 0 1.32 0 2 0 C0.90937628 3.54452709 -0.38043762 6.89127924 -1.9375 10.25 C-4.11424719 15.03558277 -5.60524667 19.93873603 -7 25 C-7.33 25 -7.66 25 -8 25 C-7.67 21.37 -7.34 17.74 -7 14 C-6.34 14 -5.68 14 -5 14 C-4.855625 12.906875 -4.71125 11.81375 -4.5625 10.6875 C-4 7 -4 7 -3 4 C-2.34 3.67 -1.68 3.34 -1 3 C-0.67 2.01 -0.34 1.02 0 0 Z " fill="#C4C4C4" transform="translate(301,189)"/>
<path d="M0 0 C0 3 0 3 -2 6 C-2.66 6 -3.32 6 -4 6 C-4.26039062 6.58394531 -4.52078125 7.16789063 -4.7890625 7.76953125 C-6.07783494 10.14336694 -7.4750854 11.77514054 -9.375 13.6875 C-9.96023437 14.28949219 -10.54546875 14.89148438 -11.1484375 15.51171875 C-13.12608914 17.10135013 -14.5214179 17.5905426 -17 18 C-14.21528688 14.39018669 -11.25907844 11.18500848 -8 8 C-6.56116092 6.56384033 -5.12373292 5.12626596 -3.6875 3.6875 C-2.45833333 2.45833333 -1.22916667 1.22916667 0 0 Z " fill="#B9B9B9" transform="translate(107,192)"/>
<path d="M0 0 C1.77378511 3.54757021 0.1987377 7.37156276 -1 11 C-2.8125 13.5625 -2.8125 13.5625 -5 15 C-7.75 15.25 -7.75 15.25 -10 15 C-9.21654285 13.82780457 -8.42297164 12.66236332 -7.625 11.5 C-7.18414062 10.8503125 -6.74328125 10.200625 -6.2890625 9.53125 C-5.65097656 8.77328125 -5.65097656 8.77328125 -5 8 C-4.34 8 -3.68 8 -3 8 C-2.87625 7.4225 -2.7525 6.845 -2.625 6.25 C-1.99351176 3.97664233 -1.11141809 2.0746471 0 0 Z " fill="#9D9D9D" transform="translate(220,316)"/>
<path d="M0 0 C1.65 0 3.3 0 5 0 C5.226875 0.639375 5.45375 1.27875 5.6875 1.9375 C6.85250896 4.27193661 6.85250896 4.27193661 9.625 4.75 C10.40875 4.8325 11.1925 4.915 12 5 C11.67 5.66 11.34 6.32 11 7 C11.89163577 9.11683841 11.89163577 9.11683841 13 11 C11.68 10.67 10.36 10.34 9 10 C9 9.34 9 8.68 9 8 C8.443125 7.773125 7.88625 7.54625 7.3125 7.3125 C4.35437642 5.633565 2.29781283 3.48929723 0 1 C0 0.67 0 0.34 0 0 Z " fill="#979797" transform="translate(140,346)"/>
<path d="M0 0 C0.33 0 0.66 0 1 0 C0.97679688 1.00160156 0.95359375 2.00320312 0.9296875 3.03515625 C0.91091211 4.37759664 0.89271382 5.72004518 0.875 7.0625 C0.85179688 8.37347656 0.82859375 9.68445313 0.8046875 11.03515625 C1.00063011 15.0127912 1.78963406 18.22219116 3 22 C3.36270588 23.99488234 3.70640699 25.9937811 4 28 C3.34 26.68 2.68 25.36 2 24 C1.34 24 0.68 24 0 24 C-0.83154277 21.09455489 -1.12838334 18.50675118 -1.1328125 15.48828125 C-1.13410156 14.64845703 -1.13539062 13.80863281 -1.13671875 12.94335938 C-1.13285156 12.07517578 -1.12898438 11.20699219 -1.125 10.3125 C-1.12886719 9.43271484 -1.13273437 8.55292969 -1.13671875 7.64648438 C-1.13542969 6.81052734 -1.13414063 5.97457031 -1.1328125 5.11328125 C-1.13168457 4.34798096 -1.13055664 3.58268066 -1.12939453 2.79418945 C-1 1 -1 1 0 0 Z " fill="#C2C2C2" transform="translate(66,245)"/>
<path d="M0 0 C5.45900699 3.2754042 9.59982315 7.43094642 14 12 C14.55300781 12.51433594 15.10601562 13.02867187 15.67578125 13.55859375 C17 15 17 15 18 18 C14.58250497 16.86083499 13.57490786 15.36727857 11.390625 12.6171875 C9.19408894 10.06278882 6.61835896 8.11697108 4 6 C1.625 3.8125 1.625 3.8125 0 2 C0 1.34 0 0.68 0 0 Z " fill="#BFBFBF" transform="translate(316,318)"/>
<path d="M0 0 C3.04332765 1.3584202 5.12309151 2.88463024 7.453125 5.2578125 C8.071875 5.88300781 8.690625 6.50820313 9.328125 7.15234375 C9.96234375 7.80332031 10.5965625 8.45429688 11.25 9.125 C11.8996875 9.78371094 12.549375 10.44242187 13.21875 11.12109375 C14.81711727 12.74296643 16.41061897 14.3693281 18 16 C14.45595664 16 13.89732095 15.39010515 11.3125 13.125 C10.37857422 12.32449219 10.37857422 12.32449219 9.42578125 11.5078125 C8 10 8 10 8 8 C7.01 7.67 6.02 7.34 5 7 C3.11864786 5.13454661 1.62429515 3.10719371 0 1 C0 0.67 0 0.34 0 0 Z " fill="#D8D8D8" transform="translate(365,250)"/>
<path d="M0 0 C0.66 0 1.32 0 2 0 C0.60652624 3.15204981 -1.02485079 5.26171773 -3.4765625 7.671875 C-4.48203125 8.66767578 -4.48203125 8.66767578 -5.5078125 9.68359375 C-6.20648438 10.36550781 -6.90515625 11.04742187 -7.625 11.75 C-8.33140625 12.44738281 -9.0378125 13.14476562 -9.765625 13.86328125 C-11.50598703 15.58012488 -13.25084981 17.29211832 -15 19 C-15 14.97698923 -13.67577112 13.95743123 -11 11 C-10.030625 10.195625 -9.06125 9.39125 -8.0625 8.5625 C-5.73394302 6.61411559 -4.09883979 5.0108208 -2.25 2.6875 C-1.5075 1.800625 -0.765 0.91375 0 0 Z " fill="#DEDEDE" transform="translate(70,182)"/>
<path d="M0 0 C7.45482748 0.32341985 14.23628278 1.74703255 21 5 C21.33 5.66 21.66 6.32 22 7 C16.76277781 6.04407983 11.941815 5.00343852 7 3 C4.67402489 2.6186926 2.34087842 2.27539746 0 2 C0 1.34 0 0.68 0 0 Z " fill="#C7C7C7" transform="translate(369,131)"/>
<path d="M0 0 C0 1.98 0 3.96 0 6 C-1.32 6.33 -2.64 6.66 -4 7 C-4 6.34 -4 5.68 -4 5 C-7.3 5.66 -10.6 6.32 -14 7 C-12.66005295 4.3201059 -11.29175165 4.0859691 -8.5625 2.9375 C-7.75941406 2.59589844 -6.95632813 2.25429688 -6.12890625 1.90234375 C-5.42636719 1.60457031 -4.72382813 1.30679687 -4 1 C-2 0 -2 0 0 0 Z " fill="#878787" transform="translate(424,320)"/>
<path d="M0 0 C0.99 0.33 1.98 0.66 3 1 C2.01 1.33 1.02 1.66 0 2 C-0.33 2.99 -0.66 3.98 -1 5 C-2.98260426 6.68732277 -4.9832342 8.35366057 -7 10 C-7.99 11.485 -7.99 11.485 -9 13 C-9.66 13 -10.32 13 -11 13 C-11.33 13.99 -11.66 14.98 -12 16 C-12.33 15.01 -12.66 14.02 -13 13 C-8.71 8.71 -4.42 4.42 0 0 Z " fill="#D1D1D1" transform="translate(121,178)"/>
<path d="M0 0 C7.9831475 0.51504177 16.22427362 1.88261106 22.125 7.75 C22.74375 8.4925 23.3625 9.235 24 10 C23.01 10 22.02 10 21 10 C21 9.34 21 8.68 21 8 C20.46375 7.896875 19.9275 7.79375 19.375 7.6875 C17 7 17 7 14.4375 5.625 C9.78674228 3.42645999 4.97683023 2.24863534 0 1 C0 0.67 0 0.34 0 0 Z " fill="#D9D9D9" transform="translate(175,147)"/>
<path d="M0 0 C0 0.66 0 1.32 0 2 C-5.48912636 5.92080455 -10.58075658 6.15269103 -17.1875 6.1875 C-19.03408203 6.20876953 -19.03408203 6.20876953 -20.91796875 6.23046875 C-24 6 -24 6 -26 4 C-25.10539063 4.04640625 -24.21078125 4.0928125 -23.2890625 4.140625 C-16.04355019 4.35690895 -10.47204239 4.01315928 -3.890625 0.875 C-2 0 -2 0 0 0 Z " fill="#D2D2D2" transform="translate(210,331)"/>
<path d="M0 0 C0.66 0.33 1.32 0.66 2 1 C1.00795408 2.33926199 0.00573778 3.67098936 -1 5 C-1.928125 6.3303125 -1.928125 6.3303125 -2.875 7.6875 C-5.27624957 10.30062453 -6.52839314 10.71069943 -10 11 C-9.34 9.68 -8.68 8.36 -8 7 C-7.34 7 -6.68 7 -6 7 C-5.67 6.01 -5.34 5.02 -5 4 C-4.34 4 -3.68 4 -3 4 C-3 3.34 -3 2.68 -3 2 C-2.01 1.34 -1.02 0.68 0 0 Z " fill="#8D8D8D" transform="translate(122,131)"/>
<path d="M0 0 C4.95 0.99 4.95 0.99 10 2 C10 2.66 10 3.32 10 4 C11.65 4.33 13.3 4.66 15 5 C15 5.66 15 6.32 15 7 C16.32 7.33 17.64 7.66 19 8 C16 9 16 9 13.22265625 7.85546875 C12.17980469 7.30503906 11.13695312 6.75460938 10.0625 6.1875 C9.02222656 5.64480469 7.98195313 5.10210937 6.91015625 4.54296875 C5.94980469 4.03378906 4.98945313 3.52460938 4 3 C2.66885961 2.32896536 1.33653835 1.66021774 0 1 C0 0.67 0 0.34 0 0 Z " fill="#BCBCBC" transform="translate(366,163)"/>
<path d="M0 0 C0.66 0.33 1.32 0.66 2 1 C1.67 2.98 1.34 4.96 1 7 C-1.31 7.33 -3.62 7.66 -6 8 C-6.33 8.99 -6.66 9.98 -7 11 C-7.66 11 -8.32 11 -9 11 C-7.71480435 8.13302508 -6.42870746 6.02392288 -4 4 C-3.34 4 -2.68 4 -2 4 C-1.34 2.68 -0.68 1.36 0 0 Z " fill="#919191" transform="translate(103,149)"/>
<path d="M0 0 C4.10839064 1.45002023 7.50344613 3.3979134 11 6 C11 6.66 11 7.32 11 8 C12.32 8.66 13.64 9.32 15 10 C14.67 10.66 14.34 11.32 14 12 C9.19958693 9.45860485 5.76911518 6.9844932 2 3 C1.34 2.67 0.68 2.34 0 2 C0 1.34 0 0.68 0 0 Z " fill="#BFBFBF" transform="translate(404,145)"/>
<path d="M0 0 C0.66 0.33 1.32 0.66 2 1 C-4.48661131 5.19627694 -10.35063869 7.0420426 -18 8 C-17 6 -17 6 -14.9609375 5.25390625 C-14.10757812 5.02574219 -13.25421875 4.79757812 -12.375 4.5625 C-9.11817902 3.65264314 -6.0698049 2.66832758 -3 1.25 C-2.01 0.8375 -1.02 0.425 0 0 Z " fill="#C1C1C1" transform="translate(433,351)"/>
<path d="M0 0 C5.29012124 4.40843437 10.18808428 9.07559794 15 14 C14.67 14.66 14.34 15.32 14 16 C8.9177921 11.63749475 3.9906547 7.40669346 0 2 C0 1.34 0 0.68 0 0 Z " fill="#D1D1D1" transform="translate(346,230)"/>
<path d="M0 0 C0.67095703 0.58007812 0.67095703 0.58007812 1.35546875 1.171875 C1.96003906 1.69265625 2.56460938 2.2134375 3.1875 2.75 C4.14269531 3.57371094 4.14269531 3.57371094 5.1171875 4.4140625 C6.64295281 5.69925071 8.22082598 6.92240185 9.8125 8.125 C11.98654733 9.98846914 12.96358205 11.36184521 14 14 C11.50638429 12.79618552 9.31856917 11.54571278 7 10 C7 9.34 7 8.68 7 8 C6.01 7.67 5.02 7.34 4 7 C0 2.54285714 0 2.54285714 0 0 Z " fill="#DFDFDF" transform="translate(47,299)"/>
<path d="M0 0 C4.08332902 1.55466197 6.08208993 4.25087844 8.75 7.625 C9.54921875 8.62789062 10.3484375 9.63078125 11.171875 10.6640625 C12.07679688 11.82035156 12.07679688 11.82035156 13 13 C12.67 13.66 12.34 14.32 12 15 C9 14 9 14 7.6875 11.4375 C7.130625 10.303125 6.57375 9.16875 6 8 C4.08554259 5.26576211 2.05959269 2.62614731 0 0 Z " fill="#C2C2C2" transform="translate(228,247)"/>
<path d="M0 0 C6.39969165 0.2723273 11.24234087 2.66308623 16 7 C16 7.99 16 8.98 16 10 C15.58492188 9.54882812 15.16984375 9.09765625 14.7421875 8.6328125 C10.77346706 4.9132494 5.36832752 2.67104094 0 2 C0 1.34 0 0.68 0 0 Z " fill="#CACACA" transform="translate(363,182)"/>
<path d="M0 0 C5.15464734 0.48324819 8.81550319 3.18610761 13 6 C9.89775756 7.55112122 7.34638045 6.21983908 4.09375 5.375 C1.95024382 4.77575499 1.95024382 4.77575499 0 6 C0.66 4.35 1.32 2.7 2 1 C1.34 0.67 0.68 0.34 0 0 Z " fill="#999999" transform="translate(391,138)"/>
<path d="M0 0 C1.45903258 0.30921884 2.91720722 0.62248799 4.375 0.9375 C5.18710937 1.11152344 5.99921875 1.28554688 6.8359375 1.46484375 C9 2 9 2 11 3 C11 3.66 11 4.32 11 5 C12.32 5.33 13.64 5.66 15 6 C13.359375 6.68359375 13.359375 6.68359375 11 7 C8.203125 5.78515625 8.203125 5.78515625 5.25 4.0625 C4.26515625 3.49660156 3.2803125 2.93070312 2.265625 2.34765625 C1.51796875 1.90292969 0.7703125 1.45820313 0 1 C0 0.67 0 0.34 0 0 Z " fill="#C7C7C7" transform="translate(353,351)"/>
<path d="M0 0 C0.66 0.33 1.32 0.66 2 1 C1.40651139 2.77444057 0.79977999 4.54445553 0.1875 6.3125 C-0.31716797 7.79169922 -0.31716797 7.79169922 -0.83203125 9.30078125 C-1.94430967 11.87129759 -2.88208191 13.22191977 -5 15 C-3.97137215 9.55432314 -2.75385216 4.88182883 0 0 Z " fill="#CDCDCD" transform="translate(41,218)"/>
<path d="M0 0 C0.99 0.33 1.98 0.66 3 1 C1.41856529 2.43958847 -0.16522779 3.87658645 -1.75 5.3125 C-2.63171875 6.11300781 -3.5134375 6.91351563 -4.421875 7.73828125 C-6.55449328 9.60916911 -8.70187943 11.34084286 -11 13 C-9.46356148 9.31930113 -7.21849055 7.01224796 -4.375 4.25 C-3.55773437 3.45078125 -2.74046875 2.6515625 -1.8984375 1.828125 C-0.95871094 0.92320312 -0.95871094 0.92320312 0 0 Z " fill="#D8D8D8" transform="translate(89,210)"/>
<path d="M0 0 C0.66 0 1.32 0 2 0 C2.8638129 1.45264038 3.71580454 2.9123163 4.5625 4.375 C5.27599609 5.59316406 5.27599609 5.59316406 6.00390625 6.8359375 C6.33261719 7.55007813 6.66132813 8.26421875 7 9 C6.67 9.66 6.34 10.32 6 11 C4.078125 10.2890625 4.078125 10.2890625 2 9 C1.171875 6.8359375 1.171875 6.8359375 0.75 4.375 C0.60046875 3.55773437 0.4509375 2.74046875 0.296875 1.8984375 C0.19890625 1.27195312 0.1009375 0.64546875 0 0 Z " fill="#A0A0A0" transform="translate(241,262)"/>
<path d="M0 0 C1.35439668 2.70879335 1.06501451 5.00933268 1 8 C-1.31 8 -3.62 8 -6 8 C-4.26440562 4.942048 -2.61527381 2.36620011 0 0 Z " fill="#343434" transform="translate(326,191)"/>
<path d="M0 0 C4.83766699 0.41465717 6.85646376 2.4198615 10 6 C10.33 6.66 10.66 7.32 11 8 C9.68 7.67 8.36 7.34 7 7 C7 6.34 7 5.68 7 5 C6.21625 4.731875 5.4325 4.46375 4.625 4.1875 C2 3 2 3 0 0 Z " fill="#B7B7B7" transform="translate(385,172)"/>
<path d="M0 0 C0.66 0 1.32 0 2 0 C1.25 4.75 1.25 4.75 -1 7 C-2.32 7 -3.64 7 -5 7 C-4.34 5.68 -3.68 4.36 -3 3 C-2.34 3 -1.68 3 -1 3 C-0.67 2.01 -0.34 1.02 0 0 Z " fill="#A8A8A8" transform="translate(88,164)"/>
<path d="M0 0 C3.3 0.99 6.6 1.98 10 3 C10 3.66 10 4.32 10 5 C11.32 5.33 12.64 5.66 14 6 C11 7 11 7 8.5546875 6.07421875 C7.67039062 5.61660156 6.78609375 5.15898437 5.875 4.6875 C4.98554687 4.23761719 4.09609375 3.78773438 3.1796875 3.32421875 C1 2 1 2 0 0 Z " fill="#D4D4D4" transform="translate(68,318)"/>
<path d="M0 0 C0.99 0.33 1.98 0.66 3 1 C2.34 1 1.68 1 1 1 C0.7525 1.598125 0.505 2.19625 0.25 2.8125 C-1.16370012 5.28647521 -2.65055383 6.43370255 -5 8 C-5.33 6.35 -5.66 4.7 -6 3 C-5.01 3 -4.02 3 -3 3 C-2.67 2.34 -2.34 1.68 -2 1 C-1.34 0.67 -0.68 0.34 0 0 Z " fill="#313131" transform="translate(184,272)"/>
<path d="M0 0 C3.59478807 3.32850747 6.22364768 6.98971331 9 11 C8.67 11.66 8.34 12.32 8 13 C7.01 12.34 6.02 11.68 5 11 C5 10.01 5 9.02 5 8 C4.34 8 3.68 8 3 8 C0 2.25 0 2.25 0 0 Z " fill="#CDCDCD" transform="translate(299,249)"/>
<path d="M0 0 C3.36179774 1.44077046 5.59156268 3.24750021 8 6 C8 6.66 8 7.32 8 8 C8.99 8.33 9.98 8.66 11 9 C11 9.66 11 10.32 11 11 C7.84164893 9.60249952 5.67727175 7.94801766 3.25 5.5 C2.63640625 4.8915625 2.0228125 4.283125 1.390625 3.65625 C0 2 0 2 0 0 Z " fill="#DCDCDC" transform="translate(404,214)"/>
<path d="M0 0 C3.38746512 1.12915504 4.37451366 2.22743073 6.6875 4.875 C7.31011719 5.57367188 7.93273437 6.27234375 8.57421875 6.9921875 C10 9 10 9 10 12 C9.34 12 8.68 12 8 12 C7.54625 11.236875 7.0925 10.47375 6.625 9.6875 C5.1942436 6.93389312 5.1942436 6.93389312 2.875 5.4375 C0.65829272 3.73802442 0.37406983 2.71200625 0 0 Z " fill="#D5D5D5" transform="translate(444,182)"/>
<path d="M0 0 C0.66 0 1.32 0 2 0 C2 0.66 2 1.32 2 2 C3.2065625 2.433125 3.2065625 2.433125 4.4375 2.875 C7 4 7 4 8 6 C7.01 7.485 7.01 7.485 6 9 C1.125 3.375 1.125 3.375 0 0 Z " fill="#404040" transform="translate(45,294)"/>
<path d="M0 0 C0.33 0.99 0.66 1.98 1 3 C1.66 3 2.32 3 3 3 C3.33 5.64 3.66 8.28 4 11 C1 9 1 9 0.48828125 6.8359375 C0.43027344 6.02382813 0.37226563 5.21171875 0.3125 4.375 C0.24675781 3.55773437 0.18101562 2.74046875 0.11328125 1.8984375 C0.07589844 1.27195312 0.03851563 0.64546875 0 0 Z " fill="#9B9B9B" transform="translate(218,286)"/>
<path d="M0 0 C3.2626876 3.08632611 6.02235218 5.93483504 8 10 C7.67 10.66 7.34 11.32 7 12 C6.67 11.01 6.34 10.02 6 9 C5.34 9 4.68 9 4 9 C0 2.25 0 2.25 0 0 Z " fill="#BEBEBE" transform="translate(229,142)"/>
<path d="M0 0 C0.66 0.66 1.32 1.32 2 2 C-0.33333333 4.33333333 -2.66666667 6.66666667 -5 9 C-5.99 9 -6.98 9 -8 9 C-8 8.34 -8 7.68 -8 7 C-6.25 5.2734375 -6.25 5.2734375 -4 3.375 C-3.2575 2.74335938 -2.515 2.11171875 -1.75 1.4609375 C-1.1725 0.97882813 -0.595 0.49671875 0 0 Z " fill="#444444" transform="translate(227,247)"/>
<path d="M0 0 C1 3 1 3 0.22265625 5.04296875 C-0.16019531 5.75066406 -0.54304688 6.45835937 -0.9375 7.1875 C-1.31777344 7.90292969 -1.69804688 8.61835938 -2.08984375 9.35546875 C-2.54037109 10.16951172 -2.54037109 10.16951172 -3 11 C-3.99 10.67 -4.98 10.34 -6 10 C-5.67 9.34 -5.34 8.68 -5 8 C-4.34 8 -3.68 8 -3 8 C-2.87625 7.236875 -2.7525 6.47375 -2.625 5.6875 C-2 3 -2 3 0 0 Z " fill="#4A4A4A" transform="translate(48,209)"/>
<path d="M0 0 C4.41889613 1.35021826 6.34345343 3.26115668 9 7 C8.01 7.495 8.01 7.495 7 8 C5.8274869 7.04882866 4.66212985 6.08882991 3.5 5.125 C2.8503125 4.59132812 2.200625 4.05765625 1.53125 3.5078125 C1.0259375 3.01023438 0.520625 2.51265625 0 2 C0 1.34 0 0.68 0 0 Z " fill="#AEAEAE" transform="translate(403,187)"/>
<path d="M0 0 C0.721875 0.598125 1.44375 1.19625 2.1875 1.8125 C4.70971395 3.77422196 7.2301697 5.41723983 10 7 C9.01 7.495 9.01 7.495 8 8 C1.35519126 4.85245902 1.35519126 4.85245902 0.0625 1.75 C0.041875 1.1725 0.02125 0.595 0 0 Z " fill="#696969" transform="translate(355,312)"/>
<path d="M0 0 C0.99 0.33 1.98 0.66 3 1 C-0.96 4.465 -0.96 4.465 -5 8 C-5.66 7.67 -6.32 7.34 -7 7 C-5.47005208 5.76302083 -3.94010417 4.52604167 -2.41015625 3.2890625 C-0.86733563 2.0333609 -0.86733563 2.0333609 0 0 Z " fill="#C7C7C7" transform="translate(97,202)"/>
<path d="M0 0 C3.93951596 1.84985967 6.78321875 4.07565341 10 7 C10 7.66 10 8.32 10 9 C6.78956118 7.61811547 4.95063635 6.07578097 2.75 3.375 C2.22921875 2.74335938 1.7084375 2.11171875 1.171875 1.4609375 C0.78515625 0.97882813 0.3984375 0.49671875 0 0 Z " fill="#DFDFDF" transform="translate(216,129)"/>
<path d="M0 0 C6.42857143 4.14285714 6.42857143 4.14285714 9 7 C8.67 7.99 8.34 8.98 8 10 C6.79557292 8.50260417 5.59114583 7.00520833 4.38671875 5.5078125 C2.87729455 3.74707893 2.87729455 3.74707893 0 2 C0 1.34 0 0.68 0 0 Z " fill="#D7D7D7" transform="translate(316,318)"/>
<path d="M0 0 C0.66 0.33 1.32 0.66 2 1 C2.625 3.5625 2.625 3.5625 3 6 C0.6568787 5.74438677 -1.67843403 5.40729228 -4 5 C-4.33 4.34 -4.66 3.68 -5 3 C-3.35 3 -1.7 3 0 3 C0 2.01 0 1.02 0 0 Z " fill="#C9C9C9" transform="translate(98,291)"/>
<path d="M0 0 C3.59905908 0.55550695 4.99909799 1.74887248 7.25 4.5625 C8.03117187 5.52349609 8.03117187 5.52349609 8.828125 6.50390625 C9.21484375 6.99761719 9.6015625 7.49132812 10 8 C4.98886765 6.5682479 3.05530451 4.01554307 0 0 Z " fill="#D0D0D0" transform="translate(373,259)"/>
<path d="M0 0 C0.99 0.33 1.98 0.66 3 1 C3 1.66 3 2.32 3 3 C3.99 3.33 4.98 3.66 6 4 C7.1875 6.0625 7.1875 6.0625 8 8 C4.63820226 6.55922954 2.40843732 4.75249979 0 2 C0 1.34 0 0.68 0 0 Z " fill="#C0C0C0" transform="translate(148,293)"/>
<path d="M0 0 C1.32 0 2.64 0 4 0 C4 0.66 4 1.32 4 2 C4.66 2 5.32 2 6 2 C6.33 3.65 6.66 5.3 7 7 C5.2925002 5.71937515 3.62626404 4.38232443 2 3 C2 2.34 2 1.68 2 1 C1.34 0.67 0.68 0.34 0 0 Z " fill="#3A3A3A" transform="translate(330,258)"/>
<path d="M0 0 C0.99 0.33 1.98 0.66 3 1 C1.35 2.98 -0.3 4.96 -2 7 C-2.33 6.01 -2.66 5.02 -3 4 C-1.5625 1.8125 -1.5625 1.8125 0 0 Z " fill="#313131" transform="translate(214,241)"/>
<path d="M0 0 C2 1.3125 2 1.3125 4 3 C4 3.99 4 4.98 4 6 C2.02 6.99 2.02 6.99 0 8 C-0.33 7.34 -0.66 6.68 -1 6 C-0.34 5.34 0.32 4.68 1 4 C0.6814823 1.89179203 0.6814823 1.89179203 0 0 Z " fill="#3C3C3C" transform="translate(450,331)"/>
<path d="M0 0 C1.17539996 0.92652701 2.34010577 1.86663387 3.5 2.8125 C4.1496875 3.33457031 4.799375 3.85664063 5.46875 4.39453125 C7 6 7 6 7 9 C0.70535714 4.17857143 0.70535714 4.17857143 0 0 Z " fill="#D6D6D6" transform="translate(383,267)"/>
<path d="M0 0 C0.66 0.99 1.32 1.98 2 3 C0.02 4.32 -1.96 5.64 -4 7 C-4.66 6.67 -5.32 6.34 -6 6 C-4.02 4.02 -2.04 2.04 0 0 Z " fill="#484848" transform="translate(193,220)"/>
<path d="M0 0 C1.8125 0.125 1.8125 0.125 4 1 C5.75 4.0625 5.75 4.0625 7 7 C3.63983107 5.87994369 2.30935087 4.62788203 0 2 C0 1.34 0 0.68 0 0 Z " fill="#B9B9B9" transform="translate(396,180)"/>
<path d="M0 0 C0.66 0.33 1.32 0.66 2 1 C-0.97 4.96 -0.97 4.96 -4 9 C-4.66 8.67 -5.32 8.34 -6 8 C-4.02 5.36 -2.04 2.72 0 0 Z " fill="#454545" transform="translate(280,165)"/>
<path d="M0 0 C0.66 0 1.32 0 2 0 C1.67 1.32 1.34 2.64 1 4 C-1.31 4.66 -3.62 5.32 -6 6 C-4 4 -2 2 0 0 Z " fill="#393939" transform="translate(432,314)"/>
<path d="M0 0 C1.43088528 2.86177057 0.59991697 4.93375773 0 8 C-0.99 8.33 -1.98 8.66 -3 9 C-2.01 6.03 -1.02 3.06 0 0 Z " fill="#404040" transform="translate(102,230)"/>
<path d="M0 0 C0.66 0 1.32 0 2 0 C1.43628586 3.26954202 0.50037734 4.82575883 -2 7 C-2.66 6.67 -3.32 6.34 -4 6 C-2.7260411 3.96166576 -1.38938077 1.96147874 0 0 Z " fill="#434343" transform="translate(111,217)"/>
<path d="M0 0 C0 3 0 3 -2.5 5.6875 C-3.325 6.450625 -4.15 7.21375 -5 8 C-5.66 7.67 -6.32 7.34 -7 7 C-4.69 4.69 -2.38 2.38 0 0 Z " fill="#383838" transform="translate(65,190)"/>
<path d="M0 0 C4.875 2.75 4.875 2.75 6 5 C3.69 4.67 1.38 4.34 -1 4 C-0.67 2.68 -0.34 1.36 0 0 Z " fill="#343434" transform="translate(378,191)"/>
<path d="M0 0 C2.31 1.98 4.62 3.96 7 6 C6.67 6.99 6.34 7.98 6 9 C4.99406757 7.8803014 3.9954151 6.7540588 3 5.625 C2.443125 4.99851563 1.88625 4.37203125 1.3125 3.7265625 C0 2 0 2 0 0 Z " fill="#DBDBDB" transform="translate(199,158)"/>
<path d="M0 0 C0.66 0.33 1.32 0.66 2 1 C1.67 1.66 1.34 2.32 1 3 C1.66 3.33 2.32 3.66 3 4 C1.35 4.33 -0.3 4.66 -2 5 C-2 2 -2 2 0 0 Z " fill="#343434" transform="translate(293,151)"/>
<path d="M0 0 C0.66 0.33 1.32 0.66 2 1 C1.01 2.485 1.01 2.485 0 4 C-0.66 4 -1.32 4 -2 4 C-2.33 4.99 -2.66 5.98 -3 7 C-3.66 7 -4.32 7 -5 7 C-3.70700306 4.11562221 -2.34058637 2.12780579 0 0 Z " fill="#EDEDED" transform="translate(99,153)"/>
<path d="M0 0 C-1.28519565 2.86697492 -2.57129254 4.97607712 -5 7 C-5.66 7 -6.32 7 -7 7 C-5.84933177 3.5479953 -4.01648928 0 0 0 Z " fill="#E1E1E1" transform="translate(112,142)"/>
<path d="M0 0 C0.66 0.33 1.32 0.66 2 1 C1.0479279 2.00596297 0.08812654 3.00461563 -0.875 4 C-1.40867187 4.556875 -1.94234375 5.11375 -2.4921875 5.6875 C-4 7 -4 7 -6 7 C-5.67 6.01 -5.34 5.02 -5 4 C-4.34 4 -3.68 4 -3 4 C-3 3.34 -3 2.68 -3 2 C-2.01 1.34 -1.02 0.68 0 0 Z " fill="#E2E2E2" transform="translate(122,131)"/>
<path d="M0 0 C0.66 0.33 1.32 0.66 2 1 C0.8803014 2.00593243 -0.2459412 3.0045849 -1.375 4 C-2.00148437 4.556875 -2.62796875 5.11375 -3.2734375 5.6875 C-5 7 -5 7 -7 7 C-5.66667905 3.00003714 -3.5042173 2.16217663 0 0 Z " fill="#E7E7E7" transform="translate(131,124)"/>
</svg>
